# 3ds Max Wavefront OBJ Exporter v0.99 - (c)2007 guruware
# File Created: 21.07.2021 17:21:16

mtllib alaDerecha.mtl

#
# object Enderdragon_Malla
#

v  6.1419 -6.2891 -1.3970
v  4.5960 -6.2891 -10.1643
v  -1.6034 0.0060 -9.0712
v  -0.0575 0.0060 -0.3039
v  -0.2789 -0.2188 -0.2648
v  0.1639 0.2308 -0.3429
v  6.3634 -6.0642 -1.4361
v  5.9205 -6.5139 -1.3580
v  6.4738 -6.0642 -0.8098
v  0.2743 0.2308 0.2833
v  -0.1685 -0.2188 0.3614
v  6.0310 -6.5139 -0.7317
# 12 vertices

vn 0.6601 0.7071 -0.2536
vn -0.3586 0.0000 -0.9335
vn 0.3586 0.0000 0.9335
vn -0.6601 -0.7071 0.2536
vn -0.6601 0.7071 0.2536
vn 0.6601 -0.7071 -0.2536
# 6 vertex normals

vt 0.4375 0.4375 0.0000
vt 0.4375 0.6561 0.0000
vt 0.2188 0.6561 0.0000
vt 0.2188 0.4375 0.0000
vt 0.8906 0.4531 0.0000
vt 0.8906 0.4375 0.0000
vt 0.6719 0.4375 0.0000
vt 0.6719 0.4531 0.0000
vt 0.4531 0.4531 0.0000
vt 0.4531 0.4375 0.0000
vt 0.6719 0.4687 0.0000
vt 0.8906 0.4687 0.0000
vt 0.9063 0.4531 0.0000
vt 0.9063 0.4375 0.0000
vt 0.4531 0.4687 0.0000
vt 0.4375 0.4531 0.0000
# 16 texture coords

o Enderdragon_Malla
g Enderdragon_Malla
usemtl alaDerecha_dragon_dragon
s 1
f 1/1/1 2/2/1 3/3/1 
f 3/3/1 4/4/1 1/1/1 
f 5/5/2 6/6/2 7/7/2 
f 7/7/2 8/8/2 5/5/2 
f 9/9/3 10/8/3 11/7/3 
f 11/7/3 12/10/3 9/9/3 
f 12/11/4 11/12/4 5/5/4 
f 5/5/4 8/8/4 12/11/4 
f 11/13/5 10/14/5 6/6/5 
f 6/6/5 5/5/5 11/13/5 
f 10/8/1 9/9/1 7/15/1 
f 7/15/1 6/11/1 10/8/1 
f 9/9/6 12/10/6 8/1/6 
f 8/1/6 7/16/6 9/9/6 
# 14 faces

