# 3ds Max Wavefront OBJ Exporter v0.99 - (c)2007 guruware
# File Created: 22.07.2021 15:05:19

mtllib cuerpo.mtl

#
# object Enderdragon_Malla
#

v  -1.9077 1.9077 -5.0871
v  1.9077 1.9077 -5.0871
v  1.9077 -1.9077 -5.0871
v  -1.9077 -1.9077 -5.0871
v  1.9077 -1.9077 5.0873
v  1.9077 1.9077 5.0873
v  -1.9077 1.9077 5.0873
v  -1.9077 -1.9077 5.0873
v  -2.5436 -0.9768 0.5545
v  -1.2718 -0.9768 0.5545
v  -1.2718 -2.2293 0.7754
v  -2.5436 -2.2293 0.7754
v  -1.2718 -1.5667 4.5328
v  -1.2718 -0.3143 4.3120
v  -2.5436 -0.3143 4.3120
v  -2.5436 -1.5667 4.5328
v  -0.1590 2.8616 2.2257
v  0.1590 2.8616 2.2257
v  0.1590 1.9077 2.2257
v  -0.1590 1.9077 2.2257
v  0.1590 1.9077 4.1334
v  0.1590 2.8616 4.1334
v  -0.1590 2.8616 4.1334
v  -0.1590 1.9077 4.1334
v  -0.7949 0.3918 8.2668
v  0.7949 0.3918 8.2668
v  0.7949 -1.1979 8.2668
v  -0.7949 -1.1979 8.2668
v  0.7949 -1.1979 9.8565
v  0.7949 0.3918 9.8565
v  -0.7949 0.3918 9.8565
v  -0.7949 -1.1979 9.8565
v  -0.1590 1.0277 8.5847
v  0.1590 1.0277 8.5847
v  0.1590 0.3918 8.5847
v  -0.1590 0.3918 8.5847
v  0.1590 0.3918 9.5386
v  0.1590 1.0277 9.5386
v  -0.1590 1.0277 9.5386
v  -0.1590 0.3918 9.5386
v  -0.7949 0.4591 6.6855
v  0.7949 0.4591 6.6855
v  0.7949 -1.1298 6.6319
v  -0.7949 -1.1298 6.6319
v  0.7949 -1.1834 8.2207
v  0.7949 0.4054 8.2744
v  -0.7949 0.4054 8.2744
v  -0.7949 -1.1834 8.2207
v  -0.1590 1.0839 7.0247
v  0.1590 1.0839 7.0247
v  0.1590 0.4483 7.0033
v  -0.1590 0.4483 7.0033
v  0.1590 0.4162 7.9566
v  0.1590 1.0517 7.9780
v  -0.1590 1.0517 7.9780
v  -0.1590 0.4162 7.9566
v  -0.7949 0.4770 5.0873
v  0.7949 0.4770 5.0873
v  0.7949 -1.1128 5.0873
v  -0.7949 -1.1128 5.0873
v  0.7949 -1.1128 6.6770
v  0.7949 0.4770 6.6770
v  -0.7949 0.4770 6.6770
v  -0.7949 -1.1128 6.6770
v  -0.1590 1.1129 5.4052
v  0.1590 1.1129 5.4052
v  0.1590 0.4770 5.4052
v  -0.1590 0.4770 5.4052
v  0.1590 0.4770 6.3591
v  0.1590 1.1129 6.3591
v  -0.1590 1.1129 6.3591
v  -0.1590 0.4770 6.3591
v  -0.1590 2.8616 -0.9538
v  0.1590 2.8616 -0.9538
v  0.1590 1.9077 -0.9538
v  -0.1590 1.9077 -0.9538
v  0.1590 1.9077 0.9539
v  0.1590 2.8616 0.9539
v  -0.1590 2.8616 0.9539
v  -0.1590 1.9077 0.9539
v  -0.1590 2.8616 -4.1333
v  0.1590 2.8616 -4.1333
v  0.1590 1.9077 -4.1333
v  -0.1590 1.9077 -4.1333
v  0.1590 1.9077 -2.2256
v  0.1590 2.8616 -2.2256
v  -0.1590 2.8616 -2.2256
v  -0.1590 1.9077 -2.2256
v  1.2718 -0.9768 0.5545
v  2.5436 -0.9768 0.5545
v  2.5436 -2.2293 0.7754
v  1.2718 -2.2293 0.7754
v  2.5436 -1.5667 4.5328
v  2.5436 -0.3143 4.3120
v  1.2718 -0.3143 4.3120
v  1.2718 -1.5667 4.5328
# 96 vertices

vn 0.0000 0.0000 -1.0000
vn 0.0000 0.0000 1.0000
vn 0.0000 -1.0000 -0.0000
vn 1.0000 0.0000 -0.0000
vn 0.0000 1.0000 -0.0000
vn -1.0000 0.0000 -0.0000
vn 0.0000 -0.1736 -0.9848
vn 0.0000 0.1736 0.9848
vn 0.0000 -0.9848 0.1736
vn 0.0000 0.9848 -0.1736
vn 0.0000 0.0337 -0.9994
vn 0.0000 -0.0337 0.9994
vn 0.0000 -0.9994 -0.0337
vn 0.0000 0.9994 0.0337
# 14 vertex normals

vt 0.6875 0.7500 0.0000
vt 0.5937 0.7500 0.0000
vt 0.5937 0.6564 0.0000
vt 0.6875 0.6564 0.0000
vt 0.3438 0.6564 0.0000
vt 0.3438 0.7500 0.0000
vt 0.2500 0.7500 0.0000
vt 0.2500 0.6564 0.0000
vt 0.4375 1.0000 0.0000
vt 0.4375 0.7500 0.0000
vt 0.3438 1.0000 0.0000
vt 0.2500 1.0000 0.0000
vt 0.0000 0.6564 0.0000
vt 0.0000 0.7500 0.0000
vt 0.5000 0.5937 0.0000
vt 0.5311 0.5937 0.0000
vt 0.5311 0.5625 0.0000
vt 0.5000 0.5625 0.0000
vt 0.4688 0.5937 0.0000
vt 0.4688 0.5625 0.0000
vt 0.5000 0.4688 0.0000
vt 0.4688 0.4688 0.0000
vt 0.5311 0.4688 0.0000
vt 0.5625 0.4688 0.0000
vt 0.5625 0.5625 0.0000
vt 0.4375 0.5625 0.0000
vt 0.4375 0.4688 0.0000
vt 0.0625 0.9765 0.0000
vt 0.0547 0.9765 0.0000
vt 0.0547 0.9610 0.0000
vt 0.0625 0.9610 0.0000
vt 0.0312 0.9610 0.0000
vt 0.0312 0.9765 0.0000
vt 0.0235 0.9765 0.0000
vt 0.0235 0.9610 0.0000
vt 0.0403 1.0000 0.0000
vt 0.0403 0.9765 0.0000
vt 0.0312 1.0000 0.0000
vt 0.0235 1.0000 0.0000
vt 0.0000 0.9610 0.0000
vt 0.0000 0.9765 0.0000
vt 0.9062 0.5547 0.0000
vt 0.8672 0.5547 0.0000
vt 0.8672 0.5157 0.0000
vt 0.9062 0.5157 0.0000
vt 0.8281 0.5157 0.0000
vt 0.8281 0.5547 0.0000
vt 0.7891 0.5547 0.0000
vt 0.7891 0.5157 0.0000
vt 0.8672 0.5937 0.0000
vt 0.8281 0.5937 0.0000
vt 0.7891 0.5937 0.0000
vt 0.7500 0.5157 0.0000
vt 0.7500 0.5547 0.0000
vt 0.2422 0.9765 0.0000
vt 0.2187 0.9765 0.0000
vt 0.2187 0.9625 0.0000
vt 0.2422 0.9625 0.0000
vt 0.2110 0.9765 0.0000
vt 0.2110 0.9625 0.0000
vt 0.2265 1.0000 0.0000
vt 0.2265 0.9765 0.0000
vt 0.2187 1.0000 0.0000
vt 0.2500 0.9765 0.0000
vt 0.2500 0.9625 0.0000
vt 0.2110 1.0000 0.0000
vt 0.1875 0.9625 0.0000
vt 0.1875 0.9765 0.0000
# 68 texture coords

o Enderdragon_Malla
g Enderdragon_Malla
usemtl cuerpo_cuerpo_cuerpo_cuerpo_cuerpo_cuerpo_cuerpo_dragon_dragon
s 1
f 1/1/1 2/2/1 3/3/1 
f 3/3/1 4/4/1 1/1/1 
f 5/5/2 6/6/2 7/7/2 
f 7/7/2 8/8/2 5/5/2 
f 3/9/3 5/10/3 8/6/3 
f 8/6/3 4/11/3 3/9/3 
f 2/2/4 6/6/4 5/5/4 
f 5/5/4 3/3/4 2/2/4 
f 1/12/5 7/7/5 6/6/5 
f 6/6/5 2/11/5 1/12/5 
f 4/13/6 8/8/6 7/7/6 
f 7/7/6 1/14/6 4/13/6 
f 9/15/7 10/16/7 11/17/7 
f 11/17/7 12/18/7 9/15/7 
f 13/18/8 14/15/8 15/19/8 
f 15/19/8 16/20/8 13/18/8 
f 11/21/9 13/18/9 16/20/9 
f 16/20/9 12/22/9 11/21/9 
f 10/23/4 14/17/4 13/18/4 
f 13/18/4 11/21/4 10/23/4 
f 9/24/10 15/25/10 14/17/10 
f 14/17/10 10/23/10 9/24/10 
f 12/22/6 16/20/6 15/26/6 
f 15/26/6 9/27/6 12/22/6 
f 17/28/1 18/29/1 19/30/1 
f 19/30/1 20/31/1 17/28/1 
f 21/32/2 22/33/2 23/34/2 
f 23/34/2 24/35/2 21/32/2 
f 19/36/3 21/37/3 24/33/3 
f 24/33/3 20/38/3 19/36/3 
f 18/29/4 22/33/4 21/32/4 
f 21/32/4 19/30/4 18/29/4 
f 17/39/5 23/34/5 22/33/5 
f 22/33/5 18/38/5 17/39/5 
f 20/40/6 24/35/6 23/34/6 
f 23/34/6 17/41/6 20/40/6 
f 25/42/1 26/43/1 27/44/1 
f 27/44/1 28/45/1 25/42/1 
f 29/46/2 30/47/2 31/48/2 
f 31/48/2 32/49/2 29/46/2 
f 27/50/3 29/43/3 32/47/3 
f 32/47/3 28/51/3 27/50/3 
f 26/43/4 30/47/4 29/46/4 
f 29/46/4 27/44/4 26/43/4 
f 25/52/5 31/48/5 30/47/5 
f 30/47/5 26/51/5 25/52/5 
f 28/53/6 32/49/6 31/48/6 
f 31/48/6 25/54/6 28/53/6 
f 33/55/1 34/56/1 35/57/1 
f 35/57/1 36/58/1 33/55/1 
f 37/57/2 38/56/2 39/59/2 
f 39/59/2 40/60/2 37/57/2 
f 35/61/3 37/62/3 40/56/3 
f 40/56/3 36/63/3 35/61/3 
f 34/64/4 38/55/4 37/58/4 
f 37/58/4 35/65/4 34/64/4 
f 33/66/5 39/59/5 38/56/5 
f 38/56/5 34/63/5 33/66/5 
f 36/67/6 40/60/6 39/59/6 
f 39/59/6 33/68/6 36/67/6 
f 41/42/11 42/43/11 43/44/11 
f 43/44/11 44/45/11 41/42/11 
f 45/46/12 46/47/12 47/48/12 
f 47/48/12 48/49/12 45/46/12 
f 43/50/13 45/43/13 48/47/13 
f 48/47/13 44/51/13 43/50/13 
f 42/43/4 46/47/4 45/46/4 
f 45/46/4 43/44/4 42/43/4 
f 41/52/14 47/48/14 46/47/14 
f 46/47/14 42/51/14 41/52/14 
f 44/53/6 48/49/6 47/48/6 
f 47/48/6 41/54/6 44/53/6 
f 49/55/11 50/56/11 51/57/11 
f 51/57/11 52/58/11 49/55/11 
f 53/57/12 54/56/12 55/59/12 
f 55/59/12 56/60/12 53/57/12 
f 51/61/13 53/62/13 56/56/13 
f 56/56/13 52/63/13 51/61/13 
f 50/64/4 54/55/4 53/58/4 
f 53/58/4 51/65/4 50/64/4 
f 49/66/14 55/59/14 54/56/14 
f 54/56/14 50/63/14 49/66/14 
f 52/67/6 56/60/6 55/59/6 
f 55/59/6 49/68/6 52/67/6 
f 57/42/1 58/43/1 59/44/1 
f 59/44/1 60/45/1 57/42/1 
f 61/46/2 62/47/2 63/48/2 
f 63/48/2 64/49/2 61/46/2 
f 59/50/3 61/43/3 64/47/3 
f 64/47/3 60/51/3 59/50/3 
f 58/43/4 62/47/4 61/46/4 
f 61/46/4 59/44/4 58/43/4 
f 57/52/5 63/48/5 62/47/5 
f 62/47/5 58/51/5 57/52/5 
f 60/53/6 64/49/6 63/48/6 
f 63/48/6 57/54/6 60/53/6 
f 65/55/1 66/56/1 67/57/1 
f 67/57/1 68/58/1 65/55/1 
f 69/57/2 70/56/2 71/59/2 
f 71/59/2 72/60/2 69/57/2 
f 67/61/3 69/62/3 72/56/3 
f 72/56/3 68/63/3 67/61/3 
f 66/64/4 70/55/4 69/58/4 
f 69/58/4 67/65/4 66/64/4 
f 65/66/5 71/59/5 70/56/5 
f 70/56/5 66/63/5 65/66/5 
f 68/67/6 72/60/6 71/59/6 
f 71/59/6 65/68/6 68/67/6 
f 73/28/1 74/29/1 75/30/1 
f 75/30/1 76/31/1 73/28/1 
f 77/32/2 78/33/2 79/34/2 
f 79/34/2 80/35/2 77/32/2 
f 75/36/3 77/37/3 80/33/3 
f 80/33/3 76/38/3 75/36/3 
f 74/29/4 78/33/4 77/32/4 
f 77/32/4 75/30/4 74/29/4 
f 73/39/5 79/34/5 78/33/5 
f 78/33/5 74/38/5 73/39/5 
f 76/40/6 80/35/6 79/34/6 
f 79/34/6 73/41/6 76/40/6 
f 81/28/1 82/29/1 83/30/1 
f 83/30/1 84/31/1 81/28/1 
f 85/32/2 86/33/2 87/34/2 
f 87/34/2 88/35/2 85/32/2 
f 83/36/3 85/37/3 88/33/3 
f 88/33/3 84/38/3 83/36/3 
f 82/29/4 86/33/4 85/32/4 
f 85/32/4 83/30/4 82/29/4 
f 81/39/5 87/34/5 86/33/5 
f 86/33/5 82/38/5 81/39/5 
f 84/40/6 88/35/6 87/34/6 
f 87/34/6 81/41/6 84/40/6 
f 89/15/7 90/16/7 91/17/7 
f 91/17/7 92/18/7 89/15/7 
f 93/18/8 94/15/8 95/19/8 
f 95/19/8 96/20/8 93/18/8 
f 91/21/9 93/18/9 96/20/9 
f 96/20/9 92/22/9 91/21/9 
f 90/23/4 94/17/4 93/18/4 
f 93/18/4 91/21/4 90/23/4 
f 89/24/10 95/25/10 94/17/10 
f 94/17/10 90/23/10 89/24/10 
f 92/22/6 96/20/6 95/26/6 
f 95/26/6 89/27/6 92/22/6 
# 144 faces

