# 3ds Max Wavefront OBJ Exporter v0.99 - (c)2007 guruware
# File Created: 22.07.2021 13:16:59

mtllib cuerpo.mtl

#
# object Enderdragon_Malla
#

v  -1.9077 1.9077 -5.0871
v  1.9077 1.9077 -5.0871
v  1.9077 -1.9077 -5.0871
v  -1.9077 -1.9077 -5.0871
v  1.9077 -1.9077 5.0873
v  1.9077 1.9077 5.0873
v  -1.9077 1.9077 5.0873
v  -1.9077 -1.9077 5.0873
v  -2.5436 -6.0410 -2.5435
v  -1.2718 -6.0410 -2.5435
v  -1.2718 -6.0410 -1.9076
v  -2.5436 -6.0410 -1.9076
v  -1.2718 -3.4974 -1.9076
v  -1.2718 -3.4974 -2.5435
v  -2.5436 -3.4974 -2.5435
v  -2.5436 -3.4974 -1.9076
v  -2.5436 -0.9768 0.5545
v  -1.2718 -0.9768 0.5545
v  -1.2718 -2.2293 0.7754
v  -2.5436 -2.2293 0.7754
v  -1.2718 -1.5667 4.5328
v  -1.2718 -0.3143 4.3120
v  -2.5436 -0.3143 4.3120
v  -2.5436 -1.5667 4.5328
v  -2.3846 -3.6637 -2.3003
v  -1.4308 -3.6637 -2.3003
v  -1.4308 -4.3944 -1.6872
v  -2.3846 -4.3944 -1.6872
v  -1.4308 -1.9419 1.2356
v  -1.4308 -1.2112 0.6224
v  -2.3846 -1.2112 0.6224
v  -2.3846 -1.9419 1.2356
v  -0.1590 2.8616 2.2257
v  0.1590 2.8616 2.2257
v  0.1590 1.9077 2.2257
v  -0.1590 1.9077 2.2257
v  0.1590 1.9077 4.1334
v  0.1590 2.8616 4.1334
v  -0.1590 2.8616 4.1334
v  -0.1590 1.9077 4.1334
v  -0.7949 0.3918 8.2668
v  0.7949 0.3918 8.2668
v  0.7949 -1.1979 8.2668
v  -0.7949 -1.1979 8.2668
v  0.7949 -1.1979 9.8565
v  0.7949 0.3918 9.8565
v  -0.7949 0.3918 9.8565
v  -0.7949 -1.1979 9.8565
v  -0.1590 1.0277 8.5847
v  0.1590 1.0277 8.5847
v  0.1590 0.3918 8.5847
v  -0.1590 0.3918 8.5847
v  0.1590 0.3918 9.5386
v  0.1590 1.0277 9.5386
v  -0.1590 1.0277 9.5386
v  -0.1590 0.3918 9.5386
v  -0.7949 0.4591 6.6855
v  0.7949 0.4591 6.6855
v  0.7949 -1.1298 6.6319
v  -0.7949 -1.1298 6.6319
v  0.7949 -1.1834 8.2207
v  0.7949 0.4054 8.2744
v  -0.7949 0.4054 8.2744
v  -0.7949 -1.1834 8.2207
v  -0.1590 1.0839 7.0247
v  0.1590 1.0839 7.0247
v  0.1590 0.4483 7.0033
v  -0.1590 0.4483 7.0033
v  0.1590 0.4162 7.9566
v  0.1590 1.0517 7.9780
v  -0.1590 1.0517 7.9780
v  -0.1590 0.4162 7.9566
v  -0.7949 0.4770 5.0873
v  0.7949 0.4770 5.0873
v  0.7949 -1.1128 5.0873
v  -0.7949 -1.1128 5.0873
v  0.7949 -1.1128 6.6770
v  0.7949 0.4770 6.6770
v  -0.7949 0.4770 6.6770
v  -0.7949 -1.1128 6.6770
v  -0.1590 1.1129 5.4052
v  0.1590 1.1129 5.4052
v  0.1590 0.4770 5.4052
v  -0.1590 0.4770 5.4052
v  0.1590 0.4770 6.3591
v  0.1590 1.1129 6.3591
v  -0.1590 1.1129 6.3591
v  -0.1590 0.4770 6.3591
v  -0.1590 2.8616 -0.9538
v  0.1590 2.8616 -0.9538
v  0.1590 1.9077 -0.9538
v  -0.1590 1.9077 -0.9538
v  0.1590 1.9077 0.9539
v  0.1590 2.8616 0.9539
v  -0.1590 2.8616 0.9539
v  -0.1590 1.9077 0.9539
v  -0.1590 2.8616 -4.1333
v  0.1590 2.8616 -4.1333
v  0.1590 1.9077 -4.1333
v  -0.1590 1.9077 -4.1333
v  0.1590 1.9077 -2.2256
v  0.1590 2.8616 -2.2256
v  -0.1590 2.8616 -2.2256
v  -0.1590 1.9077 -2.2256
v  1.2718 -6.0410 -2.5435
v  2.5436 -6.0410 -2.5435
v  2.5436 -6.0410 -1.9076
v  1.2718 -6.0410 -1.9076
v  2.5436 -3.4974 -1.9076
v  2.5436 -3.4974 -2.5435
v  1.2718 -3.4974 -2.5435
v  1.2718 -3.4974 -1.9076
v  1.2718 -0.9768 0.5545
v  2.5436 -0.9768 0.5545
v  2.5436 -2.2293 0.7754
v  1.2718 -2.2293 0.7754
v  2.5436 -1.5667 4.5328
v  2.5436 -0.3143 4.3120
v  1.2718 -0.3143 4.3120
v  1.2718 -1.5667 4.5328
v  1.4308 -3.6637 -2.3003
v  2.3846 -3.6637 -2.3003
v  2.3846 -4.3944 -1.6872
v  1.4308 -4.3944 -1.6872
v  2.3846 -1.9419 1.2356
v  2.3846 -1.2112 0.6224
v  1.4308 -1.2112 0.6224
v  1.4308 -1.9419 1.2356
# 128 vertices

vn 0.0000 0.0000 -1.0000
vn 0.0000 0.0000 1.0000
vn 0.0000 -1.0000 -0.0000
vn 1.0000 0.0000 -0.0000
vn 0.0000 1.0000 -0.0000
vn -1.0000 0.0000 -0.0000
vn 0.0000 -0.1736 -0.9848
vn 0.0000 0.1736 0.9848
vn 0.0000 -0.9848 0.1736
vn 0.0000 0.9848 -0.1736
vn 0.0000 -0.6428 -0.7660
vn 0.0000 0.6428 0.7660
vn 0.0000 -0.7660 0.6428
vn 0.0000 0.7660 -0.6428
vn 0.0000 0.0337 -0.9994
vn 0.0000 -0.0337 0.9994
vn 0.0000 -0.9994 -0.0337
vn 0.0000 0.9994 0.0337
# 18 vertex normals

vt 0.6875 0.7500 0.0000
vt 0.5937 0.7500 0.0000
vt 0.5937 0.6564 0.0000
vt 0.6875 0.6564 0.0000
vt 0.3438 0.6564 0.0000
vt 0.3438 0.7500 0.0000
vt 0.2500 0.7500 0.0000
vt 0.2500 0.6564 0.0000
vt 0.4375 1.0000 0.0000
vt 0.4375 0.7500 0.0000
vt 0.3438 1.0000 0.0000
vt 0.2500 1.0000 0.0000
vt 0.0000 0.6564 0.0000
vt 0.0000 0.7500 0.0000
vt 0.6250 0.5158 0.0000
vt 0.6563 0.5160 0.0000
vt 0.6563 0.5312 0.0000
vt 0.6250 0.5312 0.0000
vt 0.7188 0.5312 0.0000
vt 0.7188 0.5159 0.0000
vt 0.7500 0.5159 0.0000
vt 0.7500 0.5312 0.0000
vt 0.6563 0.5937 0.0000
vt 0.6250 0.5937 0.0000
vt 0.6875 0.5937 0.0000
vt 0.6875 0.5312 0.0000
vt 0.5625 0.5312 0.0000
vt 0.5625 0.5159 0.0000
vt 0.5000 0.5937 0.0000
vt 0.5311 0.5937 0.0000
vt 0.5311 0.5625 0.0000
vt 0.5000 0.5625 0.0000
vt 0.4688 0.5937 0.0000
vt 0.4688 0.5625 0.0000
vt 0.5000 0.4688 0.0000
vt 0.4688 0.4688 0.0000
vt 0.5311 0.4688 0.0000
vt 0.5625 0.4688 0.0000
vt 0.5625 0.5625 0.0000
vt 0.4375 0.5625 0.0000
vt 0.4375 0.4688 0.0000
vt 0.9297 0.4609 0.0000
vt 0.9531 0.4609 0.0000
vt 0.9531 0.4375 0.0000
vt 0.9297 0.4375 0.0000
vt 0.9062 0.4609 0.0000
vt 0.9062 0.4375 0.0000
vt 0.9297 0.3438 0.0000
vt 0.9062 0.3438 0.0000
vt 0.9531 0.3438 0.0000
vt 0.9750 0.3438 0.0000
vt 0.9750 0.4375 0.0000
vt 0.8829 0.4375 0.0000
vt 0.8829 0.3438 0.0000
vt 0.0625 0.9765 0.0000
vt 0.0547 0.9765 0.0000
vt 0.0547 0.9610 0.0000
vt 0.0625 0.9610 0.0000
vt 0.0312 0.9610 0.0000
vt 0.0312 0.9765 0.0000
vt 0.0235 0.9765 0.0000
vt 0.0235 0.9610 0.0000
vt 0.0403 1.0000 0.0000
vt 0.0403 0.9765 0.0000
vt 0.0312 1.0000 0.0000
vt 0.0235 1.0000 0.0000
vt 0.0000 0.9610 0.0000
vt 0.0000 0.9765 0.0000
vt 0.9062 0.5547 0.0000
vt 0.8672 0.5547 0.0000
vt 0.8672 0.5157 0.0000
vt 0.9062 0.5157 0.0000
vt 0.8281 0.5157 0.0000
vt 0.8281 0.5547 0.0000
vt 0.7891 0.5547 0.0000
vt 0.7891 0.5157 0.0000
vt 0.8672 0.5937 0.0000
vt 0.8281 0.5937 0.0000
vt 0.7891 0.5937 0.0000
vt 0.7500 0.5157 0.0000
vt 0.7500 0.5547 0.0000
vt 0.2422 0.9765 0.0000
vt 0.2187 0.9765 0.0000
vt 0.2187 0.9625 0.0000
vt 0.2422 0.9625 0.0000
vt 0.2110 0.9765 0.0000
vt 0.2110 0.9625 0.0000
vt 0.2265 1.0000 0.0000
vt 0.2265 0.9765 0.0000
vt 0.2187 1.0000 0.0000
vt 0.2500 0.9765 0.0000
vt 0.2500 0.9625 0.0000
vt 0.2110 1.0000 0.0000
vt 0.1875 0.9625 0.0000
vt 0.1875 0.9765 0.0000
# 95 texture coords

o Enderdragon_Malla
g Enderdragon_Malla
usemtl cuerpo_cuerpo_cuerpo_cuerpo_cuerpo_cuerpo_dragon_dragon
s 1
f 1/1/1 2/2/1 3/3/1 
f 3/3/1 4/4/1 1/1/1 
f 5/5/2 6/6/2 7/7/2 
f 7/7/2 8/8/2 5/5/2 
f 3/9/3 5/10/3 8/6/3 
f 8/6/3 4/11/3 3/9/3 
f 2/2/4 6/6/4 5/5/4 
f 5/5/4 3/3/4 2/2/4 
f 1/12/5 7/7/5 6/6/5 
f 6/6/5 2/11/5 1/12/5 
f 4/13/6 8/8/6 7/7/6 
f 7/7/6 1/14/6 4/13/6 
f 9/15/3 10/16/3 11/17/3 
f 11/17/3 12/18/3 9/15/3 
f 13/19/5 14/20/5 15/21/5 
f 15/21/5 16/22/5 13/19/5 
f 11/17/2 13/23/2 16/24/2 
f 16/24/2 12/18/2 11/17/2 
f 10/16/4 14/20/4 13/19/4 
f 13/19/4 11/17/4 10/16/4 
f 9/17/1 15/23/1 14/25/1 
f 14/25/1 10/26/1 9/17/1 
f 12/18/6 16/27/6 15/28/6 
f 15/28/6 9/15/6 12/18/6 
f 17/29/7 18/30/7 19/31/7 
f 19/31/7 20/32/7 17/29/7 
f 21/32/8 22/29/8 23/33/8 
f 23/33/8 24/34/8 21/32/8 
f 19/35/9 21/32/9 24/34/9 
f 24/34/9 20/36/9 19/35/9 
f 18/37/4 22/31/4 21/32/4 
f 21/32/4 19/35/4 18/37/4 
f 17/38/10 23/39/10 22/31/10 
f 22/31/10 18/37/10 17/38/10 
f 20/36/6 24/34/6 23/40/6 
f 23/40/6 17/41/6 20/36/6 
f 25/42/11 26/43/11 27/44/11 
f 27/44/11 28/45/11 25/42/11 
f 29/45/12 30/42/12 31/46/12 
f 31/46/12 32/47/12 29/45/12 
f 27/48/13 29/45/13 32/47/13 
f 32/47/13 28/49/13 27/48/13 
f 26/50/4 30/44/4 29/45/4 
f 29/45/4 27/48/4 26/50/4 
f 25/51/14 31/52/14 30/44/14 
f 30/44/14 26/50/14 25/51/14 
f 28/49/6 32/47/6 31/53/6 
f 31/53/6 25/54/6 28/49/6 
f 33/55/1 34/56/1 35/57/1 
f 35/57/1 36/58/1 33/55/1 
f 37/59/2 38/60/2 39/61/2 
f 39/61/2 40/62/2 37/59/2 
f 35/63/3 37/64/3 40/60/3 
f 40/60/3 36/65/3 35/63/3 
f 34/56/4 38/60/4 37/59/4 
f 37/59/4 35/57/4 34/56/4 
f 33/66/5 39/61/5 38/60/5 
f 38/60/5 34/65/5 33/66/5 
f 36/67/6 40/62/6 39/61/6 
f 39/61/6 33/68/6 36/67/6 
f 41/69/1 42/70/1 43/71/1 
f 43/71/1 44/72/1 41/69/1 
f 45/73/2 46/74/2 47/75/2 
f 47/75/2 48/76/2 45/73/2 
f 43/77/3 45/70/3 48/74/3 
f 48/74/3 44/78/3 43/77/3 
f 42/70/4 46/74/4 45/73/4 
f 45/73/4 43/71/4 42/70/4 
f 41/79/5 47/75/5 46/74/5 
f 46/74/5 42/78/5 41/79/5 
f 44/80/6 48/76/6 47/75/6 
f 47/75/6 41/81/6 44/80/6 
f 49/82/1 50/83/1 51/84/1 
f 51/84/1 52/85/1 49/82/1 
f 53/84/2 54/83/2 55/86/2 
f 55/86/2 56/87/2 53/84/2 
f 51/88/3 53/89/3 56/83/3 
f 56/83/3 52/90/3 51/88/3 
f 50/91/4 54/82/4 53/85/4 
f 53/85/4 51/92/4 50/91/4 
f 49/93/5 55/86/5 54/83/5 
f 54/83/5 50/90/5 49/93/5 
f 52/94/6 56/87/6 55/86/6 
f 55/86/6 49/95/6 52/94/6 
f 57/69/15 58/70/15 59/71/15 
f 59/71/15 60/72/15 57/69/15 
f 61/73/16 62/74/16 63/75/16 
f 63/75/16 64/76/16 61/73/16 
f 59/77/17 61/70/17 64/74/17 
f 64/74/17 60/78/17 59/77/17 
f 58/70/4 62/74/4 61/73/4 
f 61/73/4 59/71/4 58/70/4 
f 57/79/18 63/75/18 62/74/18 
f 62/74/18 58/78/18 57/79/18 
f 60/80/6 64/76/6 63/75/6 
f 63/75/6 57/81/6 60/80/6 
f 65/82/15 66/83/15 67/84/15 
f 67/84/15 68/85/15 65/82/15 
f 69/84/16 70/83/16 71/86/16 
f 71/86/16 72/87/16 69/84/16 
f 67/88/17 69/89/17 72/83/17 
f 72/83/17 68/90/17 67/88/17 
f 66/91/4 70/82/4 69/85/4 
f 69/85/4 67/92/4 66/91/4 
f 65/93/18 71/86/18 70/83/18 
f 70/83/18 66/90/18 65/93/18 
f 68/94/6 72/87/6 71/86/6 
f 71/86/6 65/95/6 68/94/6 
f 73/69/1 74/70/1 75/71/1 
f 75/71/1 76/72/1 73/69/1 
f 77/73/2 78/74/2 79/75/2 
f 79/75/2 80/76/2 77/73/2 
f 75/77/3 77/70/3 80/74/3 
f 80/74/3 76/78/3 75/77/3 
f 74/70/4 78/74/4 77/73/4 
f 77/73/4 75/71/4 74/70/4 
f 73/79/5 79/75/5 78/74/5 
f 78/74/5 74/78/5 73/79/5 
f 76/80/6 80/76/6 79/75/6 
f 79/75/6 73/81/6 76/80/6 
f 81/82/1 82/83/1 83/84/1 
f 83/84/1 84/85/1 81/82/1 
f 85/84/2 86/83/2 87/86/2 
f 87/86/2 88/87/2 85/84/2 
f 83/88/3 85/89/3 88/83/3 
f 88/83/3 84/90/3 83/88/3 
f 82/91/4 86/82/4 85/85/4 
f 85/85/4 83/92/4 82/91/4 
f 81/93/5 87/86/5 86/83/5 
f 86/83/5 82/90/5 81/93/5 
f 84/94/6 88/87/6 87/86/6 
f 87/86/6 81/95/6 84/94/6 
f 89/55/1 90/56/1 91/57/1 
f 91/57/1 92/58/1 89/55/1 
f 93/59/2 94/60/2 95/61/2 
f 95/61/2 96/62/2 93/59/2 
f 91/63/3 93/64/3 96/60/3 
f 96/60/3 92/65/3 91/63/3 
f 90/56/4 94/60/4 93/59/4 
f 93/59/4 91/57/4 90/56/4 
f 89/66/5 95/61/5 94/60/5 
f 94/60/5 90/65/5 89/66/5 
f 92/67/6 96/62/6 95/61/6 
f 95/61/6 89/68/6 92/67/6 
f 97/55/1 98/56/1 99/57/1 
f 99/57/1 100/58/1 97/55/1 
f 101/59/2 102/60/2 103/61/2 
f 103/61/2 104/62/2 101/59/2 
f 99/63/3 101/64/3 104/60/3 
f 104/60/3 100/65/3 99/63/3 
f 98/56/4 102/60/4 101/59/4 
f 101/59/4 99/57/4 98/56/4 
f 97/66/5 103/61/5 102/60/5 
f 102/60/5 98/65/5 97/66/5 
f 100/67/6 104/62/6 103/61/6 
f 103/61/6 97/68/6 100/67/6 
f 105/15/3 106/16/3 107/17/3 
f 107/17/3 108/18/3 105/15/3 
f 109/19/5 110/20/5 111/21/5 
f 111/21/5 112/22/5 109/19/5 
f 107/17/2 109/23/2 112/24/2 
f 112/24/2 108/18/2 107/17/2 
f 106/16/4 110/20/4 109/19/4 
f 109/19/4 107/17/4 106/16/4 
f 105/17/1 111/23/1 110/25/1 
f 110/25/1 106/26/1 105/17/1 
f 108/18/6 112/27/6 111/28/6 
f 111/28/6 105/15/6 108/18/6 
f 113/29/7 114/30/7 115/31/7 
f 115/31/7 116/32/7 113/29/7 
f 117/32/8 118/29/8 119/33/8 
f 119/33/8 120/34/8 117/32/8 
f 115/35/9 117/32/9 120/34/9 
f 120/34/9 116/36/9 115/35/9 
f 114/37/4 118/31/4 117/32/4 
f 117/32/4 115/35/4 114/37/4 
f 113/38/10 119/39/10 118/31/10 
f 118/31/10 114/37/10 113/38/10 
f 116/36/6 120/34/6 119/40/6 
f 119/40/6 113/41/6 116/36/6 
f 121/42/11 122/43/11 123/44/11 
f 123/44/11 124/45/11 121/42/11 
f 125/45/12 126/42/12 127/46/12 
f 127/46/12 128/47/12 125/45/12 
f 123/48/13 125/45/13 128/47/13 
f 128/47/13 124/49/13 123/48/13 
f 122/50/4 126/44/4 125/45/4 
f 125/45/4 123/48/4 122/50/4 
f 121/51/14 127/52/14 126/44/14 
f 126/44/14 122/50/14 121/51/14 
f 124/49/6 128/47/6 127/53/6 
f 127/53/6 121/54/6 124/49/6 
# 192 faces

