# 3ds Max Wavefront OBJ Exporter v0.99 - (c)2007 guruware
# File Created: 22.07.2021 13:05:31

mtllib muslo.mtl

#
# object Enderdragon_Malla
#

v  -1.2274 -1.0374 -5.1306
v  1.3162 -1.0374 -5.1306
v  1.3162 -3.3427 -4.0556
v  -1.2274 -3.3427 -4.0556
v  1.3162 -1.1928 0.5549
v  1.3162 1.1125 -0.5200
v  -1.2274 1.1125 -0.5200
v  -1.2274 -1.1928 0.5549
# 8 vertices

vn 0.0000 -0.4226 -0.9063
vn 0.0000 0.4226 0.9063
vn 0.0000 -0.9063 0.4226
vn 1.0000 0.0000 -0.0000
vn 0.0000 0.9063 -0.4226
vn -1.0000 0.0000 -0.0000
# 6 vertex normals

vt 0.1250 1.0000 0.0000
vt 0.1875 1.0000 0.0000
vt 0.1875 0.9375 0.0000
vt 0.1250 0.9375 0.0000
vt 0.0625 1.0000 0.0000
vt 0.0625 0.9375 0.0000
vt 0.1250 0.8125 0.0000
vt 0.0625 0.8125 0.0000
vt 0.1875 0.8125 0.0000
vt 0.2500 0.8125 0.0000
vt 0.2500 0.9375 0.0000
vt 0.0000 0.9375 0.0000
vt 0.0000 0.8125 0.0000
# 13 texture coords

o Enderdragon_Malla
g Enderdragon_Malla
usemtl cuerpo_cuerpo_cuerpo_cuerpo_cuerpo_cuerpo_dragon_dragon
s 1
f 1/1/1 2/2/1 3/3/1 
f 3/3/1 4/4/1 1/1/1 
f 5/4/2 6/1/2 7/5/2 
f 7/5/2 8/6/2 5/4/2 
f 3/7/3 5/4/3 8/6/3 
f 8/6/3 4/8/3 3/7/3 
f 2/9/4 6/3/4 5/4/4 
f 5/4/4 3/7/4 2/9/4 
f 1/10/5 7/11/5 6/3/5 
f 6/3/5 2/9/5 1/10/5 
f 4/8/6 8/6/6 7/12/6 
f 7/12/6 1/13/6 4/8/6 
# 12 faces

