# 3ds Max Wavefront OBJ Exporter v0.99 - (c)2007 guruware
# File Created: 21.07.2021 17:24:49

mtllib musloAlaIzquierda.mtl

#
# object Enderdragon_Malla
#

v  -8.2197 2.9102 -2.0421
v  0.2489 0.6061 -0.5489
v  -0.0752 -0.6224 -0.6060
v  -8.5438 1.6818 -2.0993
v  -0.2961 -0.6224 0.6464
v  0.0281 0.6061 0.7036
v  -8.4405 2.9102 -0.7896
v  -8.7647 1.6818 -0.8468
v  0.0868 -0.0082 -0.5775
v  1.6328 -0.0082 -9.3448
v  -6.8358 2.2960 -10.8380
v  -8.3817 2.2960 -2.0707
# 12 vertices

vn 0.3411 0.0000 -0.9400
vn -0.3411 0.0000 0.9400
vn -0.2433 -0.9659 -0.0882
vn 0.9080 -0.2588 0.3295
vn 0.2433 0.9659 0.0882
vn -0.9080 0.2588 -0.3295
# 6 vertex normals

vt 0.6875 0.5938 0.0000
vt 0.9062 0.5938 0.0000
vt 0.9062 0.6250 0.0000
vt 0.6875 0.6250 0.0000
vt 0.4688 0.6250 0.0000
vt 0.4688 0.5938 0.0000
vt 0.9062 0.6563 0.0000
vt 0.6875 0.6563 0.0000
vt 0.9375 0.5938 0.0000
vt 0.9375 0.6250 0.0000
vt 0.4688 0.6563 0.0000
vt 0.4375 0.5938 0.0000
vt 0.4375 0.6250 0.0000
vt 0.4375 0.4375 0.0000
vt 0.4375 0.6561 0.0000
vt 0.2188 0.6561 0.0000
vt 0.2188 0.4375 0.0000
# 17 texture coords

o Enderdragon_Malla
g Enderdragon_Malla
usemtl musloAlaIzquierda_dragon_dragon
s 1
f 1/1/1 2/2/1 3/3/1 
f 3/3/1 4/4/1 1/1/1 
f 5/1/2 6/4/2 7/5/2 
f 7/5/2 8/6/2 5/1/2 
f 3/3/3 5/7/3 8/8/3 
f 8/8/3 4/4/3 3/3/3 
f 2/2/4 6/9/4 5/10/4 
f 5/10/4 3/3/4 2/2/4 
f 1/11/5 7/5/5 6/4/5 
f 6/4/5 2/8/5 1/11/5 
f 4/12/6 8/6/6 7/5/6 
f 7/5/6 1/13/6 4/12/6 
f 9/14/5 10/15/5 11/16/5 
f 11/16/5 12/17/5 9/14/5 
# 14 faces

