# Blender v2.83.1 OBJ File: ''
# www.blender.org
mtllib untitled.mtl
o Speed
v -14.000000 42.000000 -6.499993
v -14.000000 0.000001 -6.500000
v -14.000000 42.000000 6.500007
v -14.000000 -0.000001 6.500000
v 14.000000 42.000000 6.500007
v 14.000000 -0.000001 6.500000
v 14.000000 42.000000 -6.499993
v 14.000000 0.000001 -6.500000
vt 0.000488 0.897949
vt 0.000488 0.570801
vt 0.101074 0.897949
vt 0.101074 0.570801
vt 0.320801 0.897949
vt 0.320801 0.570801
vt 0.421387 0.897949
vt 0.421387 0.570801
vt 0.319824 0.898926
vt 0.319824 0.999512
vt 0.102051 0.898926
vt 0.102051 0.999512
vt 0.538574 0.999512
vt 0.538574 0.898926
vt 0.320801 0.999512
vt 0.320801 0.898926
vt 0.422363 0.897949
vt 0.422363 0.570801
vt 0.640137 0.897949
vt 0.640137 0.570801
vt 0.102051 0.897949
vt 0.102051 0.570801
vt 0.319824 0.897949
vt 0.319824 0.570801
vn -1.0000 0.0000 0.0000
vn 1.0000 0.0000 0.0000
vn 0.0000 1.0000 0.0000
vn 0.0000 -1.0000 -0.0000
vn 0.0000 0.0000 -1.0000
vn 0.0000 -0.0000 1.0000
usemtl 0
s 1
f 1/1/1 2/2/1 3/3/1
f 2/2/1 4/4/1 3/3/1
f 5/5/2 6/6/2 7/7/2
f 6/6/2 8/8/2 7/7/2
f 5/9/3 7/10/3 3/11/3
f 7/10/3 1/12/3 3/11/3
f 8/13/4 6/14/4 2/15/4
f 6/14/4 4/16/4 2/15/4
f 7/17/5 8/18/5 1/19/5
f 8/18/5 2/20/5 1/19/5
f 3/21/6 4/22/6 5/23/6
f 4/22/6 6/24/6 5/23/6
o Speed.000
v -10.900000 27.000000 5.530005
v -10.900000 10.999999 5.530002
v -10.900000 26.999998 8.530005
v -10.900000 10.999999 8.530002
v -1.900000 26.999998 8.530005
v -1.900000 10.999999 8.530002
v -1.900000 27.000000 5.530005
v -1.900000 10.999999 5.530002
vt 0.000488 0.546387
vt 0.000488 0.422363
vt 0.022949 0.546387
vt 0.022949 0.422363
vt 0.094238 0.546387
vt 0.094238 0.422363
vt 0.116699 0.546387
vt 0.116699 0.422363
vt 0.093262 0.547363
vt 0.093262 0.569824
vt 0.023926 0.547363
vt 0.023926 0.569824
vt 0.163574 0.569824
vt 0.163574 0.547363
vt 0.094238 0.569824
vt 0.094238 0.547363
vt 0.117676 0.546387
vt 0.117676 0.422363
vt 0.187012 0.546387
vt 0.187012 0.422363
vt 0.023926 0.546387
vt 0.023926 0.422363
vt 0.093262 0.546387
vt 0.093262 0.422363
vn -1.0000 0.0000 0.0000
vn 1.0000 0.0000 0.0000
vn 0.0000 1.0000 0.0000
vn 0.0000 -1.0000 0.0000
vn 0.0000 0.0000 -1.0000
vn 0.0000 -0.0000 1.0000
usemtl 0
s 1
f 9/25/7 10/26/7 11/27/7
f 10/26/7 12/28/7 11/27/7
f 13/29/8 14/30/8 15/31/8
f 14/30/8 16/32/8 15/31/8
f 13/33/9 15/34/9 11/35/9
f 15/34/9 9/36/9 11/35/9
f 16/37/10 14/38/10 10/39/10
f 14/38/10 12/40/10 10/39/10
f 15/41/11 16/42/11 9/43/11
f 16/42/11 10/44/11 9/43/11
f 11/45/12 12/46/12 13/47/12
f 12/46/12 14/48/12 13/47/12
o Speed.001
v 4.500000 34.500000 4.500006
v 4.500000 13.999999 4.500002
v 4.500000 34.500000 7.500006
v 4.500000 13.999999 7.500002
v 10.000000 34.500000 7.500006
v 10.000000 13.999999 7.500002
v 10.000000 34.500000 4.500006
v 10.000000 13.999999 4.500002
vt 0.187988 0.546387
vt 0.187988 0.391113
vt 0.210449 0.546387
vt 0.210449 0.391113
vt 0.250488 0.546387
vt 0.250488 0.391113
vt 0.272949 0.546387
vt 0.272949 0.391113
vt 0.249512 0.547363
vt 0.249512 0.569824
vt 0.211426 0.547363
vt 0.211426 0.569824
vt 0.288574 0.569824
vt 0.288574 0.547363
vt 0.250488 0.569824
vt 0.250488 0.547363
vt 0.273926 0.546387
vt 0.273926 0.391113
vt 0.312012 0.546387
vt 0.312012 0.391113
vt 0.211426 0.546387
vt 0.211426 0.391113
vt 0.249512 0.546387
vt 0.249512 0.391113
vn -1.0000 0.0000 0.0000
vn 1.0000 0.0000 0.0000
vn 0.0000 1.0000 0.0000
vn 0.0000 -1.0000 0.0000
vn 0.0000 0.0000 -1.0000
vn 0.0000 -0.0000 1.0000
usemtl 0
s 1
f 17/49/13 18/50/13 19/51/13
f 18/50/13 20/52/13 19/51/13
f 21/53/14 22/54/14 23/55/14
f 22/54/14 24/56/14 23/55/14
f 21/57/15 23/58/15 19/59/15
f 23/58/15 17/60/15 19/59/15
f 24/61/16 22/62/16 18/63/16
f 22/62/16 20/64/16 18/63/16
f 23/65/17 24/66/17 17/67/17
f 24/66/17 18/68/17 17/67/17
f 19/69/18 20/70/18 21/71/18
f 20/70/18 22/72/18 21/71/18
o Icon
v -5.000000 53.000000 1.950009
v -5.000000 43.000000 1.950007
v -5.000000 53.000000 2.050009
v -5.000000 43.000000 2.050007
v 5.000000 53.000000 2.050009
v 5.000000 43.000000 2.050007
v 5.000000 53.000000 1.950009
v 5.000000 43.000000 1.950007
vt 0.023926 0.093262
vt 0.023926 0.016113
vt 0.022949 0.093262
vt 0.022949 0.016113
vt 0.102051 0.093262
vt 0.102051 0.016113
vt 0.101074 0.093262
vt 0.101074 0.016113
vt 0.101074 0.093262
vt 0.101074 0.094238
vt 0.023926 0.093262
vt 0.023926 0.094238
vt 0.179199 0.093262
vt 0.179199 0.094238
vt 0.102051 0.093262
vt 0.102051 0.094238
vt 0.102051 0.093262
vt 0.102051 0.016113
vt 0.179199 0.093262
vt 0.179199 0.016113
vt 0.023926 0.016113
vt 0.101074 0.016113
vn -1.0000 0.0000 0.0000
vn 1.0000 0.0000 0.0000
vn 0.0000 1.0000 0.0000
vn 0.0000 -1.0000 0.0000
vn 0.0000 0.0000 -1.0000
vn 0.0000 -0.0000 1.0000
usemtl 0
s 1
f 25/73/19 26/74/19 27/75/19
f 26/74/19 28/76/19 27/75/19
f 29/77/20 30/78/20 31/79/20
f 30/78/20 32/80/20 31/79/20
f 29/81/21 31/82/21 27/83/21
f 31/82/21 25/84/21 27/83/21
f 32/85/22 30/86/22 26/87/22
f 30/86/22 28/88/22 26/87/22
f 31/89/23 32/90/23 25/91/23
f 32/90/23 26/92/23 25/91/23
f 27/83/24 28/93/24 29/81/24
f 28/93/24 30/94/24 29/81/24
o Icon.000
v -3.000000 52.500000 -1.999991
v -3.000000 43.500000 -1.999993
v -3.000000 52.500000 2.000009
v -3.000000 43.500000 2.000007
v 3.000000 52.500000 2.000009
v 3.000000 43.500000 2.000007
v 3.000000 52.500000 -1.999991
v 3.000000 43.500000 -1.999993
vt 0.000488 0.265137
vt 0.000488 0.195801
vt 0.030762 0.265137
vt 0.030762 0.195801
vt 0.078613 0.265137
vt 0.078613 0.195801
vt 0.108887 0.265137
vt 0.108887 0.195801
vt 0.077637 0.266113
vt 0.077637 0.296387
vt 0.031738 0.266113
vt 0.031738 0.296387
vt 0.124512 0.296387
vt 0.124512 0.266113
vt 0.078613 0.296387
vt 0.078613 0.266113
vt 0.109863 0.265137
vt 0.109863 0.195801
vt 0.155762 0.265137
vt 0.155762 0.195801
vt 0.031738 0.265137
vt 0.031738 0.195801
vt 0.077637 0.265137
vt 0.077637 0.195801
vn -1.0000 -0.0000 0.0000
vn 1.0000 0.0000 0.0000
vn 0.0000 1.0000 0.0000
vn 0.0000 -1.0000 0.0000
vn 0.0000 0.0000 -1.0000
vn 0.0000 -0.0000 1.0000
usemtl 0
s 1
f 33/95/25 34/96/25 35/97/25
f 34/96/25 36/98/25 35/97/25
f 37/99/26 38/100/26 39/101/26
f 38/100/26 40/102/26 39/101/26
f 37/103/27 39/104/27 35/105/27
f 39/104/27 33/106/27 35/105/27
f 40/107/28 38/108/28 34/109/28
f 38/108/28 36/110/28 34/109/28
f 39/111/29 40/112/29 33/113/29
f 40/112/29 34/114/29 33/113/29
f 35/115/30 36/116/30 37/117/30
f 36/116/30 38/118/30 37/117/30
o Icon.001
v -2.000000 53.000000 -1.999991
v -2.000000 43.000000 -1.999993
v -2.000000 53.000000 2.000009
v -2.000000 43.000000 2.000007
v 2.000000 53.000000 2.000009
v 2.000000 43.000000 2.000007
v 2.000000 53.000000 -1.999991
v 2.000000 43.000000 -1.999993
vt 0.500488 0.265137
vt 0.500488 0.187988
vt 0.530762 0.265137
vt 0.530762 0.187988
vt 0.562988 0.265137
vt 0.562988 0.187988
vt 0.593262 0.265137
vt 0.593262 0.187988
vt 0.562012 0.266113
vt 0.562012 0.296387
vt 0.531738 0.266113
vt 0.531738 0.296387
vt 0.593262 0.296387
vt 0.593262 0.266113
vt 0.562988 0.296387
vt 0.562988 0.266113
vt 0.594238 0.265137
vt 0.594238 0.187988
vt 0.624512 0.265137
vt 0.624512 0.187988
vt 0.531738 0.265137
vt 0.531738 0.187988
vt 0.562012 0.265137
vt 0.562012 0.187988
vn -1.0000 0.0000 0.0000
vn 1.0000 0.0000 0.0000
vn 0.0000 1.0000 0.0000
vn 0.0000 -1.0000 0.0000
vn 0.0000 0.0000 -1.0000
vn 0.0000 -0.0000 1.0000
usemtl 0
s 1
f 41/119/31 42/120/31 43/121/31
f 42/120/31 44/122/31 43/121/31
f 45/123/32 46/124/32 47/125/32
f 46/124/32 48/126/32 47/125/32
f 45/127/33 47/128/33 43/129/33
f 47/128/33 41/130/33 43/129/33
f 48/131/34 46/132/34 42/133/34
f 46/132/34 44/134/34 42/133/34
f 47/135/35 48/136/35 41/137/35
f 48/136/35 42/138/35 41/137/35
f 43/139/36 44/140/36 45/141/36
f 44/140/36 46/142/36 45/141/36
o Icon.002
v -3.500000 52.000000 -1.999992
v -3.500000 44.000000 -1.999993
v -3.500000 52.000000 2.000009
v -3.500000 44.000000 2.000007
v 3.500000 52.000000 2.000009
v 3.500000 44.000000 2.000007
v 3.500000 52.000000 -1.999992
v 3.500000 44.000000 -1.999993
vt 0.391113 0.358887
vt 0.391113 0.297363
vt 0.421387 0.358887
vt 0.421387 0.297363
vt 0.477051 0.358887
vt 0.477051 0.297363
vt 0.507324 0.358887
vt 0.507324 0.297363
vt 0.476074 0.359863
vt 0.476074 0.390137
vt 0.422363 0.359863
vt 0.422363 0.390137
vt 0.530762 0.390137
vt 0.530762 0.359863
vt 0.477051 0.390137
vt 0.477051 0.359863
vt 0.508301 0.358887
vt 0.508301 0.297363
vt 0.562012 0.358887
vt 0.562012 0.297363
vt 0.422363 0.358887
vt 0.422363 0.297363
vt 0.476074 0.358887
vt 0.476074 0.297363
vn -1.0000 0.0000 0.0000
vn 1.0000 0.0000 0.0000
vn 0.0000 1.0000 0.0000
vn 0.0000 -1.0000 0.0000
vn 0.0000 0.0000 -1.0000
vn 0.0000 -0.0000 1.0000
usemtl 0
s 1
f 49/143/37 50/144/37 51/145/37
f 50/144/37 52/146/37 51/145/37
f 53/147/38 54/148/38 55/149/38
f 54/148/38 56/150/38 55/149/38
f 53/151/39 55/152/39 51/153/39
f 55/152/39 49/154/39 51/153/39
f 56/155/40 54/156/40 50/157/40
f 54/156/40 52/158/40 50/157/40
f 55/159/41 56/160/41 49/161/41
f 56/160/41 50/162/41 49/161/41
f 51/163/42 52/164/42 53/165/42
f 52/164/42 54/166/42 53/165/42
o Icon.003
v -4.500000 51.000000 -1.999992
v -4.500000 45.000000 -1.999993
v -4.500000 51.000000 2.000008
v -4.500000 45.000000 2.000007
v 4.500000 51.000000 2.000008
v 4.500000 45.000000 2.000007
v 4.500000 51.000000 -1.999992
v 4.500000 45.000000 -1.999993
vt 0.000488 0.358887
vt 0.000488 0.312988
vt 0.030762 0.358887
vt 0.030762 0.312988
vt 0.102051 0.358887
vt 0.102051 0.312988
vt 0.132324 0.358887
vt 0.132324 0.312988
vt 0.101074 0.359863
vt 0.101074 0.390137
vt 0.031738 0.359863
vt 0.031738 0.390137
vt 0.171387 0.390137
vt 0.171387 0.359863
vt 0.102051 0.390137
vt 0.102051 0.359863
vt 0.133301 0.358887
vt 0.133301 0.312988
vt 0.202637 0.358887
vt 0.202637 0.312988
vt 0.031738 0.358887
vt 0.031738 0.312988
vt 0.101074 0.358887
vt 0.101074 0.312988
vn -1.0000 0.0000 0.0000
vn 1.0000 0.0000 0.0000
vn 0.0000 1.0000 0.0000
vn 0.0000 -1.0000 0.0000
vn 0.0000 0.0000 -1.0000
vn 0.0000 -0.0000 1.0000
usemtl 0
s 1
f 57/167/43 58/168/43 59/169/43
f 58/168/43 60/170/43 59/169/43
f 61/171/44 62/172/44 63/173/44
f 62/172/44 64/174/44 63/173/44
f 61/175/45 63/176/45 59/177/45
f 63/176/45 57/178/45 59/177/45
f 64/179/46 62/180/46 58/181/46
f 62/180/46 60/182/46 58/181/46
f 63/183/47 64/184/47 57/185/47
f 64/184/47 58/186/47 57/185/47
f 59/187/48 60/188/48 61/189/48
f 60/188/48 62/190/48 61/189/48
o Icon.004
v -5.000000 50.000000 -1.999992
v -5.000000 46.000000 -1.999992
v -5.000000 50.000000 2.000008
v -5.000000 46.000000 2.000007
v 5.000000 50.000000 2.000008
v 5.000000 46.000000 2.000007
v 5.000000 50.000000 -1.999992
v 5.000000 46.000000 -1.999992
vt 0.312988 0.538574
vt 0.312988 0.508301
vt 0.343262 0.538574
vt 0.343262 0.508301
vt 0.422363 0.538574
vt 0.422363 0.508301
vt 0.452637 0.538574
vt 0.452637 0.508301
vt 0.421387 0.539551
vt 0.421387 0.569824
vt 0.344238 0.539551
vt 0.344238 0.569824
vt 0.499512 0.569824
vt 0.499512 0.539551
vt 0.422363 0.569824
vt 0.422363 0.539551
vt 0.453613 0.538574
vt 0.453613 0.508301
vt 0.530762 0.538574
vt 0.530762 0.508301
vt 0.344238 0.538574
vt 0.344238 0.508301
vt 0.421387 0.538574
vt 0.421387 0.508301
vn -1.0000 -0.0000 0.0000
vn 1.0000 0.0000 0.0000
vn 0.0000 1.0000 0.0000
vn 0.0000 -1.0000 0.0000
vn 0.0000 0.0000 -1.0000
vn 0.0000 -0.0000 1.0000
usemtl 0
s 1
f 65/191/49 66/192/49 67/193/49
f 66/192/49 68/194/49 67/193/49
f 69/195/50 70/196/50 71/197/50
f 70/196/50 72/198/50 71/197/50
f 69/199/51 71/200/51 67/201/51
f 71/200/51 65/202/51 67/201/51
f 72/203/52 70/204/52 66/205/52
f 70/204/52 68/206/52 66/205/52
f 71/207/53 72/208/53 65/209/53
f 72/208/53 66/210/53 65/209/53
f 67/211/54 68/212/54 69/213/54
f 68/212/54 70/214/54 69/213/54
o Icon.005
v -4.000000 51.500000 -1.999992
v -4.000000 44.500000 -1.999993
v -4.000000 51.500000 2.000008
v -4.000000 44.500000 2.000007
v 4.000000 51.500000 2.000008
v 4.000000 44.500000 2.000007
v 4.000000 51.500000 -1.999992
v 4.000000 44.500000 -1.999993
vt 0.203613 0.358887
vt 0.203613 0.305176
vt 0.233887 0.358887
vt 0.233887 0.305176
vt 0.297363 0.358887
vt 0.297363 0.305176
vt 0.327637 0.358887
vt 0.327637 0.305176
vt 0.296387 0.359863
vt 0.296387 0.390137
vt 0.234863 0.359863
vt 0.234863 0.390137
vt 0.358887 0.390137
vt 0.358887 0.359863
vt 0.297363 0.390137
vt 0.297363 0.359863
vt 0.328613 0.358887
vt 0.328613 0.305176
vt 0.390137 0.358887
vt 0.390137 0.305176
vt 0.234863 0.358887
vt 0.234863 0.305176
vt 0.296387 0.358887
vt 0.296387 0.305176
vn -1.0000 0.0000 0.0000
vn 1.0000 0.0000 0.0000
vn 0.0000 1.0000 0.0000
vn 0.0000 -1.0000 0.0000
vn 0.0000 0.0000 -1.0000
vn 0.0000 -0.0000 1.0000
usemtl 0
s 1
f 73/215/55 74/216/55 75/217/55
f 74/216/55 76/218/55 75/217/55
f 77/219/56 78/220/56 79/221/56
f 78/220/56 80/222/56 79/221/56
f 77/223/57 79/224/57 75/225/57
f 79/224/57 73/226/57 75/225/57
f 80/227/58 78/228/58 74/229/58
f 78/228/58 76/230/58 74/229/58
f 79/231/59 80/232/59 73/233/59
f 80/232/59 74/234/59 73/233/59
f 75/235/60 76/236/60 77/237/60
f 76/236/60 78/238/60 77/237/60
o Icon.006
v -5.000000 53.000000 -2.049991
v -5.000000 43.000000 -2.049993
v -5.000000 53.000000 -1.949991
v -5.000000 43.000000 -1.949993
v 5.000000 53.000000 -1.949991
v 5.000000 43.000000 -1.949993
v 5.000000 53.000000 -2.049991
v 5.000000 43.000000 -2.049993
vt 0.336426 0.093262
vt 0.336426 0.016113
vt 0.335449 0.093262
vt 0.335449 0.016113
vt 0.414551 0.093262
vt 0.414551 0.016113
vt 0.413574 0.093262
vt 0.413574 0.016113
vt 0.413574 0.093262
vt 0.413574 0.094238
vt 0.336426 0.093262
vt 0.336426 0.094238
vt 0.491699 0.093262
vt 0.491699 0.094238
vt 0.414551 0.093262
vt 0.414551 0.094238
vt 0.414551 0.093262
vt 0.414551 0.016113
vt 0.491699 0.093262
vt 0.491699 0.016113
vt 0.336426 0.016113
vt 0.413574 0.016113
vn -1.0000 0.0000 0.0000
vn 1.0000 0.0000 0.0000
vn 0.0000 1.0000 0.0000
vn 0.0000 -1.0000 0.0000
vn 0.0000 0.0000 -1.0000
vn 0.0000 -0.0000 1.0000
usemtl 0
s 1
f 81/239/61 82/240/61 83/241/61
f 82/240/61 84/242/61 83/241/61
f 85/243/62 86/244/62 87/245/62
f 86/244/62 88/246/62 87/245/62
f 85/247/63 87/248/63 83/249/63
f 87/248/63 81/250/63 83/249/63
f 88/251/64 86/252/64 82/253/64
f 86/252/64 84/254/64 82/253/64
f 87/255/65 88/256/65 81/257/65
f 88/256/65 82/258/65 81/257/65
f 83/249/66 84/259/66 85/247/66
f 84/259/66 86/260/66 85/247/66
o Icon.007
v -0.500000 43.000000 -1.999993
v -0.500000 42.000000 -1.999993
v -0.500000 43.000000 2.000007
v -0.500000 42.000000 2.000007
v 0.500000 43.000000 2.000007
v 0.500000 42.000000 2.000007
v 0.500000 43.000000 -1.999993
v 0.500000 42.000000 -1.999993
vt 0.234863 0.155762
vt 0.234863 0.148926
vt 0.265137 0.155762
vt 0.265137 0.148926
vt 0.273926 0.155762
vt 0.273926 0.148926
vt 0.304199 0.155762
vt 0.304199 0.148926
vt 0.272949 0.156738
vt 0.272949 0.187012
vt 0.266113 0.156738
vt 0.266113 0.187012
vt 0.280762 0.187012
vt 0.280762 0.156738
vt 0.273926 0.187012
vt 0.273926 0.156738
vt 0.305176 0.155762
vt 0.305176 0.148926
vt 0.312012 0.155762
vt 0.312012 0.148926
vt 0.266113 0.155762
vt 0.266113 0.148926
vt 0.272949 0.155762
vt 0.272949 0.148926
vn -1.0000 0.0000 0.0000
vn 1.0000 0.0000 0.0000
vn 0.0000 1.0000 0.0000
vn 0.0000 -1.0000 0.0000
vn 0.0000 0.0000 -1.0000
vn 0.0000 0.0000 1.0000
usemtl 0
s 1
f 89/261/67 90/262/67 91/263/67
f 90/262/67 92/264/67 91/263/67
f 93/265/68 94/266/68 95/267/68
f 94/266/68 96/268/68 95/267/68
f 93/269/69 95/270/69 91/271/69
f 95/270/69 89/272/69 91/271/69
f 96/273/70 94/274/70 90/275/70
f 94/274/70 92/276/70 90/275/70
f 95/277/71 96/278/71 89/279/71
f 96/278/71 90/280/71 89/279/71
f 91/281/72 92/282/72 93/283/72
f 92/282/72 94/284/72 93/283/72
o Icon.008
v -5.500000 48.500000 -1.999992
v -5.500000 47.500000 -1.999992
v -5.500000 48.500000 2.000008
v -5.500000 47.500000 2.000008
v -4.500000 48.500000 2.000008
v -4.500000 47.500000 2.000008
v -4.500000 48.500000 -1.999992
v -4.500000 47.500000 -1.999992
vt 0.156738 0.116699
vt 0.156738 0.109863
vt 0.187012 0.116699
vt 0.187012 0.109863
vt 0.195801 0.116699
vt 0.195801 0.109863
vt 0.226074 0.116699
vt 0.226074 0.109863
vt 0.194824 0.117676
vt 0.194824 0.147949
vt 0.187988 0.117676
vt 0.187988 0.147949
vt 0.202637 0.147949
vt 0.202637 0.117676
vt 0.195801 0.147949
vt 0.195801 0.117676
vt 0.227051 0.116699
vt 0.227051 0.109863
vt 0.233887 0.116699
vt 0.233887 0.109863
vt 0.187988 0.116699
vt 0.187988 0.109863
vt 0.194824 0.116699
vt 0.194824 0.109863
vn -1.0000 0.0000 0.0000
vn 1.0000 0.0000 0.0000
vn 0.0000 1.0000 0.0000
vn 0.0000 -1.0000 0.0000
vn 0.0000 0.0000 -1.0000
vn 0.0000 -0.0000 1.0000
usemtl 0
s 1
f 97/285/73 98/286/73 99/287/73
f 98/286/73 100/288/73 99/287/73
f 101/289/74 102/290/74 103/291/74
f 102/290/74 104/292/74 103/291/74
f 101/293/75 103/294/75 99/295/75
f 103/294/75 97/296/75 99/295/75
f 104/297/76 102/298/76 98/299/76
f 102/298/76 100/300/76 98/299/76
f 103/301/77 104/302/77 97/303/77
f 104/302/77 98/304/77 97/303/77
f 99/305/78 100/306/78 101/307/78
f 100/306/78 102/308/78 101/307/78
o Icon.009
v 4.500000 48.500000 -1.999992
v 4.500000 47.500000 -1.999992
v 4.500000 48.500000 2.000008
v 4.500000 47.500000 2.000008
v 5.500000 48.500000 2.000008
v 5.500000 47.500000 2.000008
v 5.500000 48.500000 -1.999992
v 5.500000 47.500000 -1.999992
vt 0.156738 0.155762
vt 0.156738 0.148926
vt 0.187012 0.155762
vt 0.187012 0.148926
vt 0.195801 0.155762
vt 0.195801 0.148926
vt 0.226074 0.155762
vt 0.226074 0.148926
vt 0.194824 0.156738
vt 0.194824 0.187012
vt 0.187988 0.156738
vt 0.187988 0.187012
vt 0.202637 0.187012
vt 0.202637 0.156738
vt 0.195801 0.187012
vt 0.195801 0.156738
vt 0.227051 0.155762
vt 0.227051 0.148926
vt 0.233887 0.155762
vt 0.233887 0.148926
vt 0.187988 0.155762
vt 0.187988 0.148926
vt 0.194824 0.155762
vt 0.194824 0.148926
vn -1.0000 0.0000 0.0000
vn 1.0000 0.0000 0.0000
vn 0.0000 1.0000 0.0000
vn 0.0000 -1.0000 0.0000
vn 0.0000 0.0000 -1.0000
vn 0.0000 -0.0000 1.0000
usemtl 0
s 1
f 105/309/79 106/310/79 107/311/79
f 106/310/79 108/312/79 107/311/79
f 109/313/80 110/314/80 111/315/80
f 110/314/80 112/316/80 111/315/80
f 109/317/81 111/318/81 107/319/81
f 111/318/81 105/320/81 107/319/81
f 112/321/82 110/322/82 106/323/82
f 110/322/82 108/324/82 106/323/82
f 111/325/83 112/326/83 105/327/83
f 112/326/83 106/328/83 105/327/83
f 107/329/84 108/330/84 109/331/84
f 108/330/84 110/332/84 109/331/84
o Speed1
v -10.900000 31.692001 4.667659
v -10.900000 26.275560 5.622723
v -10.900000 32.212948 7.622082
v -10.900000 26.796503 8.577147
v -1.900000 32.212948 7.622082
v -1.900000 26.796503 8.577147
v -1.900000 31.692001 4.667659
v -1.900000 26.275560 5.622723
vt 0.156738 0.272949
vt 0.156738 0.234863
vt 0.179199 0.272949
vt 0.179199 0.234863
vt 0.250488 0.272949
vt 0.250488 0.234863
vt 0.272949 0.272949
vt 0.272949 0.234863
vt 0.249512 0.273926
vt 0.249512 0.296387
vt 0.180176 0.273926
vt 0.180176 0.296387
vt 0.319824 0.296387
vt 0.319824 0.273926
vt 0.250488 0.296387
vt 0.250488 0.273926
vt 0.273926 0.272949
vt 0.273926 0.234863
vt 0.343262 0.272949
vt 0.343262 0.234863
vt 0.180176 0.272949
vt 0.180176 0.234863
vt 0.249512 0.272949
vt 0.249512 0.234863
vn -1.0000 0.0000 0.0000
vn 1.0000 -0.0000 0.0000
vn 0.0000 0.9848 -0.1736
vn 0.0000 -0.9848 0.1736
vn 0.0000 -0.1736 -0.9848
vn 0.0000 0.1736 0.9848
usemtl 0
s 1
f 113/333/85 114/334/85 115/335/85
f 114/334/85 116/336/85 115/335/85
f 117/337/86 118/338/86 119/339/86
f 118/338/86 120/340/86 119/339/86
f 117/341/87 119/342/87 115/343/87
f 119/342/87 113/344/87 115/343/87
f 120/345/88 118/346/88 114/347/88
f 118/346/88 116/348/88 114/347/88
f 119/349/89 120/350/89 113/351/89
f 120/350/89 114/352/89 113/351/89
f 115/353/90 116/354/90 117/355/90
f 116/354/90 118/356/90 117/355/90
