# Blender v2.83.1 OBJ File: ''
# www.blender.org
mtllib untitled.mtl
o DT
v 6.000000 40.000004 -13.499993
v 6.000000 0.000002 -13.500000
v -6.000000 40.000004 -13.499993
v -6.000000 0.000002 -13.500000
v -6.000000 39.999996 13.500007
v -6.000000 -0.000002 13.500000
v 6.000000 39.999996 13.500007
v 6.000000 -0.000002 13.500000
vt 0.000244 0.952881
vt 0.000244 0.797119
vt 0.046631 0.952881
vt 0.046631 0.797119
vt 0.152588 0.952881
vt 0.152588 0.797119
vt 0.198975 0.952881
vt 0.198975 0.797119
vt 0.152100 0.953369
vt 0.152100 0.999756
vt 0.047119 0.953369
vt 0.047119 0.999756
vt 0.257568 0.999756
vt 0.257568 0.953369
vt 0.152588 0.999756
vt 0.152588 0.953369
vt 0.199463 0.952881
vt 0.199463 0.797119
vt 0.304443 0.952881
vt 0.304443 0.797119
vt 0.047119 0.952881
vt 0.047119 0.797119
vt 0.152100 0.952881
vt 0.152100 0.797119
vn 0.0000 0.0000 -1.0000
vn 0.0000 -0.0000 1.0000
vn 0.0000 1.0000 0.0000
vn 0.0000 -1.0000 -0.0000
vn 1.0000 0.0000 0.0000
vn -1.0000 0.0000 0.0000
usemtl 0
s 1
f 1/1/1 2/2/1 3/3/1
f 2/2/1 4/4/1 3/3/1
f 5/5/2 6/6/2 7/7/2
f 6/6/2 8/8/2 7/7/2
f 5/9/3 7/10/3 3/11/3
f 7/10/3 1/12/3 3/11/3
f 8/13/4 6/14/4 2/15/4
f 6/14/4 4/16/4 2/15/4
f 7/17/5 8/18/5 1/19/5
f 8/18/5 2/20/5 1/19/5
f 3/21/6 4/22/6 5/23/6
f 4/22/6 6/24/6 5/23/6
o DT_Front
v -5.842059 24.982304 13.250004
v -5.134953 24.275198 13.250004
v -5.842059 24.982307 -13.249996
v -5.134953 24.275202 -13.249996
v -6.549166 24.275202 -13.249996
v -5.842059 23.568094 -13.249996
v -6.549166 24.275198 13.250004
v -5.842059 23.568090 13.250004
vt 0.211182 0.589600
vt 0.211182 0.586182
vt 0.312256 0.589600
vt 0.312256 0.586182
vt 0.316650 0.589600
vt 0.316650 0.586182
vt 0.417725 0.589600
vt 0.417725 0.586182
vt 0.316162 0.590088
vt 0.316162 0.691162
vt 0.312744 0.590088
vt 0.312744 0.691162
vt 0.320068 0.691162
vt 0.320068 0.590088
vt 0.316650 0.691162
vt 0.316650 0.590088
vt 0.418213 0.589600
vt 0.418213 0.586182
vt 0.421631 0.589600
vt 0.421631 0.586182
vt 0.312744 0.589600
vt 0.312744 0.586182
vt 0.316162 0.589600
vt 0.316162 0.586182
vn 0.7071 0.7071 0.0000
vn -0.7071 -0.7071 -0.0000
vn -0.7071 0.7071 0.0000
vn 0.7071 -0.7071 -0.0000
vn 0.0000 0.0000 1.0000
vn 0.0000 0.0000 -1.0000
usemtl 0
s 1
f 9/25/7 10/26/7 11/27/7
f 10/26/7 12/28/7 11/27/7
f 13/29/8 14/30/8 15/31/8
f 14/30/8 16/32/8 15/31/8
f 13/33/9 15/34/9 11/35/9
f 15/34/9 9/36/9 11/35/9
f 16/37/10 14/38/10 10/39/10
f 14/38/10 12/40/10 10/39/10
f 15/41/11 16/42/11 9/43/11
f 16/42/11 10/44/11 9/43/11
f 11/45/12 12/46/12 13/47/12
f 12/46/12 14/48/12 13/47/12
o DT_Front.000
v -5.842059 16.497023 13.250003
v -5.134953 15.789916 13.250003
v -5.842059 16.497026 -13.249997
v -5.134953 15.789920 -13.249997
v -6.549166 15.789920 -13.249997
v -5.842059 15.082813 -13.249997
v -6.549166 15.789916 13.250003
v -5.842059 15.082809 13.250003
vt 0.000244 0.695068
vt 0.000244 0.691650
vt 0.101318 0.695068
vt 0.101318 0.691650
vt 0.105713 0.695068
vt 0.105713 0.691650
vt 0.206787 0.695068
vt 0.206787 0.691650
vt 0.105225 0.695557
vt 0.105225 0.796631
vt 0.101807 0.695557
vt 0.101807 0.796631
vt 0.109131 0.796631
vt 0.109131 0.695557
vt 0.105713 0.796631
vt 0.105713 0.695557
vt 0.207275 0.695068
vt 0.207275 0.691650
vt 0.210693 0.695068
vt 0.210693 0.691650
vt 0.101807 0.695068
vt 0.101807 0.691650
vt 0.105225 0.695068
vt 0.105225 0.691650
vn 0.7071 0.7071 0.0000
vn -0.7071 -0.7071 -0.0000
vn -0.7071 0.7071 0.0000
vn 0.7071 -0.7071 -0.0000
vn 0.0000 0.0000 1.0000
vn 0.0000 0.0000 -1.0000
usemtl 0
s 1
f 17/49/13 18/50/13 19/51/13
f 18/50/13 20/52/13 19/51/13
f 21/53/14 22/54/14 23/55/14
f 22/54/14 24/56/14 23/55/14
f 21/57/15 23/58/15 19/59/15
f 23/58/15 17/60/15 19/59/15
f 24/61/16 22/62/16 18/63/16
f 22/62/16 20/64/16 18/63/16
f 23/65/17 24/66/17 17/67/17
f 24/66/17 18/68/17 17/67/17
f 19/69/18 20/70/18 21/71/18
f 20/70/18 22/72/18 21/71/18
o DT_Front.001
v -5.842059 22.153879 2.000004
v -5.134953 21.446772 2.000004
v -5.842059 22.153881 -13.249996
v -5.134953 21.446774 -13.249996
v -6.549166 21.446774 -13.249996
v -5.842059 20.739668 -13.249996
v -6.549166 21.446772 2.000004
v -5.842059 20.739666 2.000003
vt 0.250244 0.527100
vt 0.250244 0.523682
vt 0.308350 0.527100
vt 0.308350 0.523682
vt 0.312744 0.527100
vt 0.312744 0.523682
vt 0.370850 0.527100
vt 0.370850 0.523682
vt 0.312256 0.527588
vt 0.312256 0.585693
vt 0.308838 0.527588
vt 0.308838 0.585693
vt 0.316162 0.585693
vt 0.316162 0.527588
vt 0.312744 0.585693
vt 0.312744 0.527588
vt 0.371338 0.527100
vt 0.371338 0.523682
vt 0.374756 0.527100
vt 0.374756 0.523682
vt 0.308838 0.527100
vt 0.308838 0.523682
vt 0.312256 0.527100
vt 0.312256 0.523682
vn 0.7071 0.7071 0.0000
vn -0.7071 -0.7071 0.0000
vn -0.7071 0.7071 0.0000
vn 0.7071 -0.7071 0.0000
vn 0.0000 -0.0000 1.0000
vn 0.0000 0.0000 -1.0000
usemtl 0
s 1
f 25/73/19 26/74/19 27/75/19
f 26/74/19 28/76/19 27/75/19
f 29/77/20 30/78/20 31/79/20
f 30/78/20 32/80/20 31/79/20
f 29/81/21 31/82/21 27/83/21
f 31/82/21 25/84/21 27/83/21
f 32/85/22 30/86/22 26/87/22
f 30/86/22 28/88/22 26/87/22
f 31/89/23 32/90/23 25/91/23
f 32/90/23 26/92/23 25/91/23
f 27/93/24 28/94/24 29/95/24
f 28/94/24 30/96/24 29/95/24
o DT_Front.002
v -5.842059 15.082809 13.250003
v -5.134953 14.375702 13.250002
v -5.842059 15.082813 -13.249997
v -5.134953 14.375706 -13.249998
v -6.549166 14.375706 -13.249998
v -5.842059 13.668599 -13.249998
v -6.549166 14.375702 13.250002
v -5.842059 13.668595 13.250002
vt 0.304932 0.898193
vt 0.304932 0.894775
vt 0.406006 0.898193
vt 0.406006 0.894775
vt 0.410400 0.898193
vt 0.410400 0.894775
vt 0.511475 0.898193
vt 0.511475 0.894775
vt 0.409912 0.898682
vt 0.409912 0.999756
vt 0.406494 0.898682
vt 0.406494 0.999756
vt 0.413818 0.999756
vt 0.413818 0.898682
vt 0.410400 0.999756
vt 0.410400 0.898682
vt 0.511963 0.898193
vt 0.511963 0.894775
vt 0.515381 0.898193
vt 0.515381 0.894775
vt 0.406494 0.898193
vt 0.406494 0.894775
vt 0.409912 0.898193
vt 0.409912 0.894775
vn 0.7071 0.7071 0.0000
vn -0.7071 -0.7071 -0.0000
vn -0.7071 0.7071 0.0000
vn 0.7071 -0.7071 -0.0000
vn -0.0000 -0.0000 1.0000
vn 0.0000 0.0000 -1.0000
usemtl 0
s 1
f 33/97/25 34/98/25 35/99/25
f 34/98/25 36/100/25 35/99/25
f 37/101/26 38/102/26 39/103/26
f 38/102/26 40/104/26 39/103/26
f 37/105/27 39/106/27 35/107/27
f 39/106/27 33/108/27 35/107/27
f 40/109/28 38/110/28 34/111/28
f 38/110/28 36/112/28 34/111/28
f 39/113/29 40/114/29 33/115/29
f 40/114/29 34/116/29 33/115/29
f 35/117/30 36/118/30 37/119/30
f 36/118/30 38/120/30 37/119/30
o DT_Front.003
v -5.842059 17.911236 13.250003
v -5.134953 17.204130 13.250003
v -5.842059 17.911240 -13.249997
v -5.134953 17.204134 -13.249997
v -6.549166 17.204134 -13.249997
v -5.842059 16.497026 -13.249997
v -6.549166 17.204130 13.250003
v -5.842059 16.497023 13.250003
vt 0.211182 0.695068
vt 0.211182 0.691650
vt 0.312256 0.695068
vt 0.312256 0.691650
vt 0.316650 0.695068
vt 0.316650 0.691650
vt 0.417725 0.695068
vt 0.417725 0.691650
vt 0.316162 0.695557
vt 0.316162 0.796631
vt 0.312744 0.695557
vt 0.312744 0.796631
vt 0.320068 0.796631
vt 0.320068 0.695557
vt 0.316650 0.796631
vt 0.316650 0.695557
vt 0.418213 0.695068
vt 0.418213 0.691650
vt 0.421631 0.695068
vt 0.421631 0.691650
vt 0.312744 0.695068
vt 0.312744 0.691650
vt 0.316162 0.695068
vt 0.316162 0.691650
vn 0.7071 0.7071 0.0000
vn -0.7071 -0.7071 -0.0000
vn -0.7071 0.7071 0.0000
vn 0.7071 -0.7071 -0.0000
vn 0.0000 0.0000 1.0000
vn 0.0000 0.0000 -1.0000
usemtl 0
s 1
f 41/121/31 42/122/31 43/123/31
f 42/122/31 44/124/31 43/123/31
f 45/125/32 46/126/32 47/127/32
f 46/126/32 48/128/32 47/127/32
f 45/129/33 47/130/33 43/131/33
f 47/130/33 41/132/33 43/131/33
f 48/133/34 46/134/34 42/135/34
f 46/134/34 44/136/34 42/135/34
f 47/137/35 48/138/35 41/139/35
f 48/138/35 42/140/35 41/139/35
f 43/141/36 44/142/36 45/143/36
f 44/142/36 46/144/36 45/143/36
o DT_Front.004
v -5.842059 20.739666 2.000003
v -5.134953 20.032558 2.000003
v -5.842059 20.739668 -13.249996
v -5.134953 20.032560 -13.249997
v -6.549166 20.032560 -13.249997
v -5.842059 19.325453 -13.249997
v -6.549166 20.032558 2.000003
v -5.842059 19.325451 2.000003
vt 0.125244 0.527100
vt 0.125244 0.523682
vt 0.183350 0.527100
vt 0.183350 0.523682
vt 0.187744 0.527100
vt 0.187744 0.523682
vt 0.245850 0.527100
vt 0.245850 0.523682
vt 0.187256 0.527588
vt 0.187256 0.585693
vt 0.183838 0.527588
vt 0.183838 0.585693
vt 0.191162 0.585693
vt 0.191162 0.527588
vt 0.187744 0.585693
vt 0.187744 0.527588
vt 0.246338 0.527100
vt 0.246338 0.523682
vt 0.249756 0.527100
vt 0.249756 0.523682
vt 0.183838 0.527100
vt 0.183838 0.523682
vt 0.187256 0.527100
vt 0.187256 0.523682
vn 0.7071 0.7071 0.0000
vn -0.7071 -0.7071 -0.0000
vn -0.7071 0.7071 0.0000
vn 0.7071 -0.7071 0.0000
vn 0.0000 -0.0000 1.0000
vn 0.0000 0.0000 -1.0000
usemtl 0
s 1
f 49/145/37 50/146/37 51/147/37
f 50/146/37 52/148/37 51/147/37
f 53/149/38 54/150/38 55/151/38
f 54/150/38 56/152/38 55/151/38
f 53/153/39 55/154/39 51/155/39
f 55/154/39 49/156/39 51/155/39
f 56/157/40 54/158/40 50/159/40
f 54/158/40 52/160/40 50/159/40
f 55/161/41 56/162/41 49/163/41
f 56/162/41 50/164/41 49/163/41
f 51/165/42 52/166/42 53/167/42
f 52/166/42 54/168/42 53/167/42
o DT_Front.005
v -5.842059 22.153877 8.100004
v -5.134953 21.446770 8.100004
v -5.842059 22.153879 5.100004
v -5.134953 21.446772 5.100003
v -6.549166 21.446772 5.100003
v -5.842059 20.739666 5.100003
v -6.549166 21.446770 8.100004
v -5.842059 20.739664 8.100004
vt 0.062744 0.511475
vt 0.062744 0.508057
vt 0.073975 0.511475
vt 0.073975 0.508057
vt 0.078369 0.511475
vt 0.078369 0.508057
vt 0.089600 0.511475
vt 0.089600 0.508057
vt 0.077881 0.511963
vt 0.077881 0.523193
vt 0.074463 0.511963
vt 0.074463 0.523193
vt 0.081787 0.523193
vt 0.081787 0.511963
vt 0.078369 0.523193
vt 0.078369 0.511963
vt 0.090088 0.511475
vt 0.090088 0.508057
vt 0.093506 0.511475
vt 0.093506 0.508057
vt 0.074463 0.511475
vt 0.074463 0.508057
vt 0.077881 0.511475
vt 0.077881 0.508057
vn 0.7071 0.7071 0.0000
vn -0.7071 -0.7071 -0.0000
vn -0.7071 0.7071 0.0000
vn 0.7071 -0.7071 -0.0000
vn 0.0000 0.0000 1.0000
vn 0.0000 0.0000 -1.0000
usemtl 0
s 1
f 57/169/43 58/170/43 59/171/43
f 58/170/43 60/172/43 59/171/43
f 61/173/44 62/174/44 63/175/44
f 62/174/44 64/176/44 63/175/44
f 61/177/45 63/178/45 59/179/45
f 63/178/45 57/180/45 59/179/45
f 64/181/46 62/182/46 58/183/46
f 62/182/46 60/184/46 58/183/46
f 63/185/47 64/186/47 57/187/47
f 64/186/47 58/188/47 57/187/47
f 59/189/48 60/190/48 61/191/48
f 60/190/48 62/192/48 61/191/48
o DT_Front.006
v -5.842059 19.325451 2.000003
v -5.134953 18.618345 2.000003
v -5.842059 19.325453 -13.249997
v -5.134953 18.618347 -13.249997
v -6.549166 18.618347 -13.249997
v -5.842059 17.911240 -13.249997
v -6.549166 18.618345 2.000003
v -5.842059 17.911238 2.000003
vt 0.000244 0.527100
vt 0.000244 0.523682
vt 0.058350 0.527100
vt 0.058350 0.523682
vt 0.062744 0.527100
vt 0.062744 0.523682
vt 0.120850 0.527100
vt 0.120850 0.523682
vt 0.062256 0.527588
vt 0.062256 0.585693
vt 0.058838 0.527588
vt 0.058838 0.585693
vt 0.066162 0.585693
vt 0.066162 0.527588
vt 0.062744 0.585693
vt 0.062744 0.527588
vt 0.121338 0.527100
vt 0.121338 0.523682
vt 0.124756 0.527100
vt 0.124756 0.523682
vt 0.058838 0.527100
vt 0.058838 0.523682
vt 0.062256 0.527100
vt 0.062256 0.523682
vn 0.7071 0.7071 0.0000
vn -0.7071 -0.7071 0.0000
vn -0.7071 0.7071 0.0000
vn 0.7071 -0.7071 -0.0000
vn 0.0000 -0.0000 1.0000
vn 0.0000 0.0000 -1.0000
usemtl 0
s 1
f 65/193/49 66/194/49 67/195/49
f 66/194/49 68/196/49 67/195/49
f 69/197/50 70/198/50 71/199/50
f 70/198/50 72/200/50 71/199/50
f 69/201/51 71/202/51 67/203/51
f 71/202/51 65/204/51 67/203/51
f 72/205/52 70/206/52 66/207/52
f 70/206/52 68/208/52 66/207/52
f 71/209/53 72/210/53 65/211/53
f 72/210/53 66/212/53 65/211/53
f 67/213/54 68/214/54 69/215/54
f 68/214/54 70/216/54 69/215/54
o DT_Front.007
v -5.842059 19.325449 8.100003
v -5.134953 18.618343 8.100003
v -5.842059 19.325451 5.100003
v -5.134953 18.618345 5.100003
v -6.549166 18.618345 5.100003
v -5.842059 17.911238 5.100003
v -6.549166 18.618343 8.100003
v -5.842059 17.911236 8.100003
vt 0.000244 0.511475
vt 0.000244 0.508057
vt 0.011475 0.511475
vt 0.011475 0.508057
vt 0.015869 0.511475
vt 0.015869 0.508057
vt 0.027100 0.511475
vt 0.027100 0.508057
vt 0.015381 0.511963
vt 0.015381 0.523193
vt 0.011963 0.511963
vt 0.011963 0.523193
vt 0.019287 0.523193
vt 0.019287 0.511963
vt 0.015869 0.523193
vt 0.015869 0.511963
vt 0.027588 0.511475
vt 0.027588 0.508057
vt 0.031006 0.511475
vt 0.031006 0.508057
vt 0.011963 0.511475
vt 0.011963 0.508057
vt 0.015381 0.511475
vt 0.015381 0.508057
vn 0.7071 0.7071 0.0000
vn -0.7071 -0.7071 -0.0000
vn -0.7071 0.7071 0.0000
vn 0.7071 -0.7071 0.0000
vn 0.0000 0.0000 1.0000
vn 0.0000 0.0000 -1.0000
usemtl 0
s 1
f 73/217/55 74/218/55 75/219/55
f 74/218/55 76/220/55 75/219/55
f 77/221/56 78/222/56 79/223/56
f 78/222/56 80/224/56 79/223/56
f 77/225/57 79/226/57 75/227/57
f 79/226/57 73/228/57 75/227/57
f 80/229/58 78/230/58 74/231/58
f 78/230/58 76/232/58 74/231/58
f 79/233/59 80/234/59 73/235/59
f 80/234/59 74/236/59 73/235/59
f 75/237/60 76/238/60 77/239/60
f 76/238/60 78/240/60 77/239/60
o DT_Front.008
v -5.842059 20.739664 13.200004
v -5.134953 20.032557 13.200003
v -5.842059 20.739664 11.000004
v -5.134953 20.032557 11.000003
v -6.549166 20.032557 11.000003
v -5.842059 19.325449 11.000003
v -6.549166 20.032557 13.200003
v -5.842059 19.325449 13.200003
vt 0.117432 0.515381
vt 0.117432 0.511963
vt 0.124756 0.515381
vt 0.124756 0.511963
vt 0.129150 0.515381
vt 0.129150 0.511963
vt 0.136475 0.515381
vt 0.136475 0.511963
vt 0.128662 0.515869
vt 0.128662 0.523193
vt 0.125244 0.515869
vt 0.125244 0.523193
vt 0.132568 0.523193
vt 0.132568 0.515869
vt 0.129150 0.523193
vt 0.129150 0.515869
vt 0.136963 0.515381
vt 0.136963 0.511963
vt 0.140381 0.515381
vt 0.140381 0.511963
vt 0.125244 0.515381
vt 0.125244 0.511963
vt 0.128662 0.515381
vt 0.128662 0.511963
vn 0.7071 0.7071 0.0000
vn -0.7071 -0.7071 0.0000
vn -0.7071 0.7071 0.0000
vn 0.7071 -0.7071 0.0000
vn 0.0000 -0.0000 1.0000
vn 0.0000 0.0000 -1.0000
usemtl 0
s 1
f 81/241/61 82/242/61 83/243/61
f 82/242/61 84/244/61 83/243/61
f 85/245/62 86/246/62 87/247/62
f 86/246/62 88/248/62 87/247/62
f 85/249/63 87/250/63 83/251/63
f 87/250/63 81/252/63 83/251/63
f 88/253/64 86/254/64 82/255/64
f 86/254/64 84/256/64 82/255/64
f 87/257/65 88/258/65 81/259/65
f 88/258/65 82/260/65 81/259/65
f 83/261/66 84/262/66 85/263/66
f 84/262/66 86/264/66 85/263/66
o DT_Front.009
v -5.842059 20.739664 8.100004
v -5.134953 20.032557 8.100003
v -5.842059 20.739666 5.100003
v -5.134953 20.032558 5.100003
v -6.549166 20.032558 5.100003
v -5.842059 19.325451 5.100003
v -6.549166 20.032557 8.100003
v -5.842059 19.325449 8.100003
vt 0.031494 0.511475
vt 0.031494 0.508057
vt 0.042725 0.511475
vt 0.042725 0.508057
vt 0.047119 0.511475
vt 0.047119 0.508057
vt 0.058350 0.511475
vt 0.058350 0.508057
vt 0.046631 0.511963
vt 0.046631 0.523193
vt 0.043213 0.511963
vt 0.043213 0.523193
vt 0.050537 0.523193
vt 0.050537 0.511963
vt 0.047119 0.523193
vt 0.047119 0.511963
vt 0.058838 0.511475
vt 0.058838 0.508057
vt 0.062256 0.511475
vt 0.062256 0.508057
vt 0.043213 0.511475
vt 0.043213 0.508057
vt 0.046631 0.511475
vt 0.046631 0.508057
vn 0.7071 0.7071 0.0000
vn -0.7071 -0.7071 0.0000
vn -0.7071 0.7071 0.0000
vn 0.7071 -0.7071 -0.0000
vn -0.0000 -0.0000 1.0000
vn 0.0000 0.0000 -1.0000
usemtl 0
s 1
f 89/265/67 90/266/67 91/267/67
f 90/266/67 92/268/67 91/267/67
f 93/269/68 94/270/68 95/271/68
f 94/270/68 96/272/68 95/271/68
f 93/273/69 95/274/69 91/275/69
f 95/274/69 89/276/69 91/275/69
f 96/277/70 94/278/70 90/279/70
f 94/278/70 92/280/70 90/279/70
f 95/281/71 96/282/71 89/283/71
f 96/282/71 90/284/71 89/283/71
f 91/285/72 92/286/72 93/287/72
f 92/286/72 94/288/72 93/287/72
o DT_Front.010
v -5.842059 19.325449 13.200003
v -5.134953 18.618343 13.200003
v -5.842059 19.325449 11.000003
v -5.134953 18.618343 11.000003
v -6.549166 18.618343 11.000003
v -5.842059 17.911236 11.000003
v -6.549166 18.618343 13.200003
v -5.842059 17.911236 13.200003
vt 0.140869 0.515381
vt 0.140869 0.511963
vt 0.148193 0.515381
vt 0.148193 0.511963
vt 0.152588 0.515381
vt 0.152588 0.511963
vt 0.159912 0.515381
vt 0.159912 0.511963
vt 0.152100 0.515869
vt 0.152100 0.523193
vt 0.148682 0.515869
vt 0.148682 0.523193
vt 0.156006 0.523193
vt 0.156006 0.515869
vt 0.152588 0.523193
vt 0.152588 0.515869
vt 0.160400 0.515381
vt 0.160400 0.511963
vt 0.163818 0.515381
vt 0.163818 0.511963
vt 0.148682 0.515381
vt 0.148682 0.511963
vt 0.152100 0.515381
vt 0.152100 0.511963
vn 0.7071 0.7071 0.0000
vn -0.7071 -0.7071 0.0000
vn -0.7071 0.7071 0.0000
vn 0.7071 -0.7071 0.0000
vn 0.0000 0.0000 1.0000
vn 0.0000 0.0000 -1.0000
usemtl 0
s 1
f 97/289/73 98/290/73 99/291/73
f 98/290/73 100/292/73 99/291/73
f 101/293/74 102/294/74 103/295/74
f 102/294/74 104/296/74 103/295/74
f 101/297/75 103/298/75 99/299/75
f 103/298/75 97/300/75 99/299/75
f 104/301/76 102/302/76 98/303/76
f 102/302/76 100/304/76 98/303/76
f 103/305/77 104/306/77 97/307/77
f 104/306/77 98/308/77 97/307/77
f 99/309/78 100/310/78 101/311/78
f 100/310/78 102/312/78 101/311/78
o DT_Front.011
v -5.842059 22.153877 13.200004
v -5.134953 21.446770 13.200004
v -5.842059 22.153877 11.000004
v -5.134953 21.446770 11.000004
v -6.549166 21.446770 11.000004
v -5.842059 20.739664 11.000004
v -6.549166 21.446770 13.200004
v -5.842059 20.739664 13.200004
vt 0.093994 0.515381
vt 0.093994 0.511963
vt 0.101318 0.515381
vt 0.101318 0.511963
vt 0.105713 0.515381
vt 0.105713 0.511963
vt 0.113037 0.515381
vt 0.113037 0.511963
vt 0.105225 0.515869
vt 0.105225 0.523193
vt 0.101807 0.515869
vt 0.101807 0.523193
vt 0.109131 0.523193
vt 0.109131 0.515869
vt 0.105713 0.523193
vt 0.105713 0.515869
vt 0.113525 0.515381
vt 0.113525 0.511963
vt 0.116943 0.515381
vt 0.116943 0.511963
vt 0.101807 0.515381
vt 0.101807 0.511963
vt 0.105225 0.515381
vt 0.105225 0.511963
vn 0.7071 0.7071 0.0000
vn -0.7071 -0.7071 0.0000
vn -0.7071 0.7071 0.0000
vn 0.7071 -0.7071 0.0000
vn -0.0000 0.0000 1.0000
vn 0.0000 0.0000 -1.0000
usemtl 0
s 1
f 105/313/79 106/314/79 107/315/79
f 106/314/79 108/316/79 107/315/79
f 109/317/80 110/318/80 111/319/80
f 110/318/80 112/320/80 111/319/80
f 109/321/81 111/322/81 107/323/81
f 111/322/81 105/324/81 107/323/81
f 112/325/82 110/326/82 106/327/82
f 110/326/82 108/328/82 106/327/82
f 111/329/83 112/330/83 105/331/83
f 112/330/83 106/332/83 105/331/83
f 107/333/84 108/334/84 109/335/84
f 108/334/84 110/336/84 109/335/84
o DT_Front.012
v -5.842059 23.568090 13.250004
v -5.134953 22.860983 13.250004
v -5.842059 23.568094 -13.249996
v -5.134953 22.860987 -13.249996
v -6.549166 22.860987 -13.249996
v -5.842059 22.153881 -13.249996
v -6.549166 22.860983 13.250004
v -5.842059 22.153877 13.250004
vt 0.000244 0.589600
vt 0.000244 0.586182
vt 0.101318 0.589600
vt 0.101318 0.586182
vt 0.105713 0.589600
vt 0.105713 0.586182
vt 0.206787 0.589600
vt 0.206787 0.586182
vt 0.105225 0.590088
vt 0.105225 0.691162
vt 0.101807 0.590088
vt 0.101807 0.691162
vt 0.109131 0.691162
vt 0.109131 0.590088
vt 0.105713 0.691162
vt 0.105713 0.590088
vt 0.207275 0.589600
vt 0.207275 0.586182
vt 0.210693 0.589600
vt 0.210693 0.586182
vt 0.101807 0.589600
vt 0.101807 0.586182
vt 0.105225 0.589600
vt 0.105225 0.586182
vn 0.7071 0.7071 0.0000
vn -0.7071 -0.7071 -0.0000
vn -0.7071 0.7071 0.0000
vn 0.7071 -0.7071 0.0000
vn 0.0000 0.0000 1.0000
vn 0.0000 0.0000 -1.0000
usemtl 0
s 1
f 113/337/85 114/338/85 115/339/85
f 114/338/85 116/340/85 115/339/85
f 117/341/86 118/342/86 119/343/86
f 118/342/86 120/344/86 119/343/86
f 117/345/87 119/346/87 115/347/87
f 119/346/87 113/348/87 115/347/87
f 120/349/88 118/350/88 114/351/88
f 118/350/88 116/352/88 114/351/88
f 119/353/89 120/354/89 113/355/89
f 120/354/89 114/356/89 113/355/89
f 115/357/90 116/358/90 117/359/90
f 116/358/90 118/360/90 117/359/90
