# Blender v2.83.1 OBJ File: ''
# www.blender.org
mtllib juggerNog.mtl
o JuggBase
v 7.218853 42.000000 6.534568
v 7.218853 0.000001 6.534575
v 7.280982 42.000000 -6.465283
v 7.280982 -0.000001 -6.465277
v -7.218853 42.000000 -6.534582
v -7.218853 -0.000001 -6.534575
v -7.280982 42.000000 6.465270
v -7.280982 0.000001 6.465277
vt 0.000488 0.897949
vt 0.000488 0.570801
vt 0.101074 0.897949
vt 0.101074 0.570801
vt 0.211426 0.897949
vt 0.211426 0.570801
vt 0.312012 0.897949
vt 0.312012 0.570801
vt 0.210449 0.898926
vt 0.210449 0.999512
vt 0.102051 0.898926
vt 0.102051 0.999512
vt 0.319824 0.999512
vt 0.319824 0.898926
vt 0.211426 0.999512
vt 0.211426 0.898926
vt 0.312988 0.897949
vt 0.312988 0.570801
vt 0.421387 0.897949
vt 0.421387 0.570801
vt 0.102051 0.897949
vt 0.102051 0.570801
vt 0.210449 0.897949
vt 0.210449 0.570801
vn 1.0000 0.0000 0.0048
vn -1.0000 0.0000 -0.0048
vn 0.0000 1.0000 0.0000
vn -0.0000 -1.0000 0.0000
vn -0.0048 0.0000 1.0000
vn 0.0048 -0.0000 -1.0000
usemtl 0
s 1
f 1/1/1 2/2/1 3/3/1
f 2/2/1 4/4/1 3/3/1
f 5/5/2 6/6/2 7/7/2
f 6/6/2 8/8/2 7/7/2
f 5/9/3 7/10/3 3/11/3
f 7/10/3 1/12/3 3/11/3
f 8/13/4 6/14/4 2/15/4
f 6/14/4 4/16/4 2/15/4
f 7/17/5 8/18/5 1/19/5
f 8/18/5 2/20/5 1/19/5
f 3/21/6 4/22/6 5/23/6
f 4/22/6 6/24/6 5/23/6
o JuggBase.000
v 4.526377 26.400000 -5.508435
v 4.526377 11.399999 -5.508432
v 4.540715 26.399998 -8.508401
v 4.540715 11.399999 -8.508398
v -4.459182 26.399998 -8.551413
v -4.459182 11.399999 -8.551411
v -4.473520 26.400000 -5.551447
v -4.473520 11.399999 -5.551445
vt 0.000488 0.546387
vt 0.000488 0.430176
vt 0.022949 0.546387
vt 0.022949 0.430176
vt 0.094238 0.546387
vt 0.094238 0.430176
vt 0.116699 0.546387
vt 0.116699 0.430176
vt 0.093262 0.547363
vt 0.093262 0.569824
vt 0.023926 0.547363
vt 0.023926 0.569824
vt 0.163574 0.569824
vt 0.163574 0.547363
vt 0.094238 0.569824
vt 0.094238 0.547363
vt 0.117676 0.546387
vt 0.117676 0.430176
vt 0.187012 0.546387
vt 0.187012 0.430176
vt 0.023926 0.546387
vt 0.023926 0.430176
vt 0.093262 0.546387
vt 0.093262 0.430176
vn 1.0000 0.0000 0.0048
vn -1.0000 0.0000 -0.0048
vn 0.0000 1.0000 0.0000
vn 0.0000 -1.0000 0.0000
vn -0.0048 0.0000 1.0000
vn 0.0048 -0.0000 -1.0000
usemtl 0
s 1
f 9/25/7 10/26/7 11/27/7
f 10/26/7 12/28/7 11/27/7
f 13/29/8 14/30/8 15/31/8
f 14/30/8 16/32/8 15/31/8
f 13/33/9 15/34/9 11/35/9
f 15/34/9 9/36/9 11/35/9
f 16/37/10 14/38/10 10/39/10
f 14/38/10 12/40/10 10/39/10
f 15/41/11 16/42/11 9/43/11
f 16/42/11 10/44/11 9/43/11
f 11/45/12 12/46/12 13/47/12
f 12/46/12 14/48/12 13/47/12
o JuggBase1
v 4.521370 32.167042 -4.460796
v 4.526765 25.765791 -5.589496
v 4.535490 32.687984 -7.415186
v 4.540884 26.286734 -8.543885
v -4.464407 32.687984 -7.458199
v -4.459013 26.286734 -8.586897
v -4.478527 32.167042 -4.503809
v -4.473132 25.765791 -5.632508
vt 0.000488 0.405762
vt 0.000488 0.359863
vt 0.022949 0.405762
vt 0.022949 0.359863
vt 0.094238 0.405762
vt 0.094238 0.359863
vt 0.116699 0.405762
vt 0.116699 0.359863
vt 0.093262 0.406738
vt 0.093262 0.429199
vt 0.023926 0.406738
vt 0.023926 0.429199
vt 0.163574 0.429199
vt 0.163574 0.406738
vt 0.094238 0.429199
vt 0.094238 0.406738
vt 0.117676 0.405762
vt 0.117676 0.359863
vt 0.187012 0.405762
vt 0.187012 0.359863
vt 0.023926 0.405762
vt 0.023926 0.359863
vt 0.093262 0.405762
vt 0.093262 0.359863
vn 1.0000 0.0000 0.0048
vn -1.0000 0.0000 -0.0048
vn -0.0008 0.9848 0.1736
vn 0.0008 -0.9848 -0.1736
vn -0.0047 -0.1736 0.9848
vn 0.0047 0.1736 -0.9848
usemtl 0
s 1
f 17/49/13 18/50/13 19/51/13
f 18/50/13 20/52/13 19/51/13
f 21/53/14 22/54/14 23/55/14
f 22/54/14 24/56/14 23/55/14
f 21/57/15 23/58/15 19/59/15
f 23/58/15 17/60/15 19/59/15
f 24/61/16 22/62/16 18/63/16
f 22/62/16 20/64/16 18/63/16
f 23/65/17 24/66/17 17/67/17
f 24/66/17 18/68/17 17/67/17
f 19/69/18 20/70/18 21/71/18
f 20/70/18 22/72/18 21/71/18
o Icon
v 3.499960 50.500000 0.016719
v 3.499960 44.500000 0.016720
v 3.519077 50.500000 -3.983235
v 3.519077 44.500000 -3.983234
v -3.480843 50.500000 -4.016690
v -3.480843 44.500000 -4.016688
v -3.499960 50.500000 -0.016735
v -3.499960 44.500000 -0.016734
vt 0.187988 0.397949
vt 0.187988 0.352051
vt 0.218262 0.397949
vt 0.218262 0.352051
vt 0.273926 0.397949
vt 0.273926 0.352051
vt 0.304199 0.397949
vt 0.304199 0.352051
vt 0.272949 0.398926
vt 0.272949 0.429199
vt 0.219238 0.398926
vt 0.219238 0.429199
vt 0.327637 0.429199
vt 0.327637 0.398926
vt 0.273926 0.429199
vt 0.273926 0.398926
vt 0.305176 0.397949
vt 0.305176 0.352051
vt 0.358887 0.397949
vt 0.358887 0.352051
vt 0.219238 0.397949
vt 0.219238 0.352051
vt 0.272949 0.397949
vt 0.272949 0.352051
vn 1.0000 -0.0000 0.0048
vn -1.0000 0.0000 -0.0048
vn 0.0000 1.0000 0.0000
vn 0.0000 -1.0000 0.0000
vn -0.0048 0.0000 1.0000
vn 0.0048 -0.0000 -1.0000
usemtl 0
s 1
f 25/73/19 26/74/19 27/75/19
f 26/74/19 28/76/19 27/75/19
f 29/77/20 30/78/20 31/79/20
f 30/78/20 32/80/20 31/79/20
f 29/81/21 31/82/21 27/83/21
f 31/82/21 25/84/21 27/83/21
f 32/85/22 30/86/22 26/87/22
f 30/86/22 28/88/22 26/87/22
f 31/89/23 32/90/23 25/91/23
f 32/90/23 26/92/23 25/91/23
f 27/93/24 28/94/24 29/95/24
f 28/94/24 30/96/24 29/95/24
o Icon.000
v 4.499423 52.000000 0.131497
v 4.499423 43.000000 0.131498
v 4.499901 52.000000 0.031498
v 4.499901 43.000000 0.031499
v -4.499996 52.000000 -0.011515
v -4.499996 43.000000 -0.011513
v -4.500474 52.000000 0.088484
v -4.500474 43.000000 0.088485
vt 0.000488 0.101074
vt 0.000488 0.031738
vt -0.000488 0.101074
vt -0.000488 0.031738
vt 0.070801 0.101074
vt 0.070801 0.031738
vt 0.069824 0.101074
vt 0.069824 0.031738
vt 0.069824 0.101074
vt 0.069824 0.102051
vt 0.000488 0.101074
vt 0.000488 0.102051
vt 0.140137 0.101074
vt 0.140137 0.102051
vt 0.070801 0.101074
vt 0.070801 0.102051
vt 0.070801 0.101074
vt 0.070801 0.031738
vt 0.140137 0.101074
vt 0.140137 0.031738
vt 0.000488 0.031738
vt 0.069824 0.031738
vn 1.0000 0.0000 0.0048
vn -1.0000 0.0000 -0.0048
vn 0.0000 1.0000 -0.0001
vn 0.0000 1.0000 0.0001
vn 0.0000 -1.0000 0.0000
vn -0.0048 0.0000 1.0000
vn 0.0048 -0.0000 -1.0000
usemtl 0
s 1
f 33/97/25 34/98/25 35/99/25
f 34/98/25 36/100/25 35/99/25
f 37/101/26 38/102/26 39/103/26
f 38/102/26 40/104/26 39/103/26
f 37/105/27 39/106/27 35/107/28
f 39/106/27 33/108/28 35/107/28
f 40/109/29 38/110/29 34/111/29
f 38/110/29 36/112/29 34/111/29
f 39/113/30 40/114/30 33/115/30
f 40/114/30 34/116/30 33/115/30
f 35/107/31 36/117/31 37/105/31
f 36/117/31 38/118/31 37/105/31
o Icon.001
v 4.499949 49.000000 0.021498
v 4.499949 46.000000 0.021499
v 4.519065 49.000000 -3.978456
v 4.519065 46.000000 -3.978456
v -4.480832 49.000000 -4.021469
v -4.480832 46.000000 -4.021468
v -4.499949 49.000000 -0.021514
v -4.499949 46.000000 -0.021514
vt 0.187988 0.468262
vt 0.187988 0.445801
vt 0.218262 0.468262
vt 0.218262 0.445801
vt 0.289551 0.468262
vt 0.289551 0.445801
vt 0.319824 0.468262
vt 0.319824 0.445801
vt 0.288574 0.469238
vt 0.288574 0.499512
vt 0.219238 0.469238
vt 0.219238 0.499512
vt 0.358887 0.499512
vt 0.358887 0.469238
vt 0.289551 0.499512
vt 0.289551 0.469238
vt 0.320801 0.468262
vt 0.320801 0.445801
vt 0.390137 0.468262
vt 0.390137 0.445801
vt 0.219238 0.468262
vt 0.219238 0.445801
vt 0.288574 0.468262
vt 0.288574 0.445801
vn 1.0000 0.0000 0.0048
vn -1.0000 0.0000 -0.0048
vn 0.0000 1.0000 0.0000
vn 0.0000 -1.0000 0.0000
vn -0.0048 0.0000 1.0000
vn 0.0048 -0.0000 -1.0000
usemtl 0
s 1
f 41/119/32 42/120/32 43/121/32
f 42/120/32 44/122/32 43/121/32
f 45/123/33 46/124/33 47/125/33
f 46/124/33 48/126/33 47/125/33
f 45/127/34 47/128/34 43/129/34
f 47/128/34 41/130/34 43/129/34
f 48/131/35 46/132/35 42/133/35
f 46/132/35 44/134/35 42/133/35
f 47/135/36 48/136/36 41/137/36
f 48/136/36 42/138/36 41/137/36
f 43/139/37 44/140/37 45/141/37
f 44/140/37 46/142/37 45/141/37
o Icon.002
v 3.999954 50.000000 0.019109
v 3.999954 45.000000 0.019109
v 4.019071 50.000000 -3.980846
v 4.019071 45.000000 -3.980845
v -3.980838 50.000000 -4.019079
v -3.980838 45.000000 -4.019078
v -3.999954 50.000000 -0.019125
v -3.999954 45.000000 -0.019124
vt 0.187988 0.538574
vt 0.187988 0.500488
vt 0.218262 0.538574
vt 0.218262 0.500488
vt 0.281738 0.538574
vt 0.281738 0.500488
vt 0.312012 0.538574
vt 0.312012 0.500488
vt 0.280762 0.539551
vt 0.280762 0.569824
vt 0.219238 0.539551
vt 0.219238 0.569824
vt 0.343262 0.569824
vt 0.343262 0.539551
vt 0.281738 0.569824
vt 0.281738 0.539551
vt 0.312988 0.538574
vt 0.312988 0.500488
vt 0.374512 0.538574
vt 0.374512 0.500488
vt 0.219238 0.538574
vt 0.219238 0.500488
vt 0.280762 0.538574
vt 0.280762 0.500488
vn 1.0000 -0.0000 0.0048
vn -1.0000 0.0000 -0.0048
vn 0.0000 1.0000 -0.0000
vn 0.0000 -1.0000 -0.0000
vn -0.0048 0.0000 1.0000
vn 0.0048 -0.0000 -1.0000
usemtl 0
s 1
f 49/143/38 50/144/38 51/145/38
f 50/144/38 52/146/38 51/145/38
f 53/147/39 54/148/39 55/149/39
f 54/148/39 56/150/39 55/149/39
f 53/151/40 55/152/40 51/153/40
f 55/152/40 49/154/40 51/153/40
f 56/155/41 54/156/41 50/157/41
f 54/156/41 52/158/41 50/157/41
f 55/159/42 56/160/42 49/161/42
f 56/160/42 50/162/42 49/161/42
f 51/163/43 52/164/43 53/165/43
f 52/164/43 54/166/43 53/165/43
o Icon.003
v 2.999966 51.000000 0.014329
v 2.999966 44.000000 0.014330
v 3.019082 51.000000 -3.985625
v 3.019082 44.000000 -3.985624
v -2.980849 51.000000 -4.014300
v -2.980849 44.000000 -4.014299
v -2.999966 51.000000 -0.014346
v -2.999966 44.000000 -0.014345
vt 0.359863 0.397949
vt 0.359863 0.344238
vt 0.390137 0.397949
vt 0.390137 0.344238
vt 0.437988 0.397949
vt 0.437988 0.344238
vt 0.468262 0.397949
vt 0.468262 0.344238
vt 0.437012 0.398926
vt 0.437012 0.429199
vt 0.391113 0.398926
vt 0.391113 0.429199
vt 0.483887 0.429199
vt 0.483887 0.398926
vt 0.437988 0.429199
vt 0.437988 0.398926
vt 0.469238 0.397949
vt 0.469238 0.344238
vt 0.515137 0.397949
vt 0.515137 0.344238
vt 0.391113 0.397949
vt 0.391113 0.344238
vt 0.437012 0.397949
vt 0.437012 0.344238
vn 1.0000 -0.0000 0.0048
vn -1.0000 0.0000 -0.0048
vn 0.0000 1.0000 0.0000
vn 0.0000 -1.0000 0.0000
vn -0.0048 0.0000 1.0000
vn 0.0048 -0.0000 -1.0000
usemtl 0
s 1
f 57/167/44 58/168/44 59/169/44
f 58/168/44 60/170/44 59/169/44
f 61/171/45 62/172/45 63/173/45
f 62/172/45 64/174/45 63/173/45
f 61/175/46 63/176/46 59/177/46
f 63/176/46 57/178/46 59/177/46
f 64/179/47 62/180/47 58/181/47
f 62/180/47 60/182/47 58/181/47
f 63/183/48 64/184/48 57/185/48
f 64/184/48 58/186/48 57/185/48
f 59/187/49 60/188/49 61/189/49
f 60/188/49 62/190/49 61/189/49
o Icon.004
v 1.499983 52.000000 0.007160
v 1.499983 43.000000 0.007162
v 1.519099 52.000000 -3.992794
v 1.519099 43.000000 -3.992792
v -1.480866 52.000000 -4.007132
v -1.480866 43.000000 -4.007130
v -1.499983 52.000000 -0.007177
v -1.499983 43.000000 -0.007176
vt 0.281738 0.312012
vt 0.281738 0.242676
vt 0.312012 0.312012
vt 0.312012 0.242676
vt 0.336426 0.312012
vt 0.336426 0.242676
vt 0.366699 0.312012
vt 0.366699 0.242676
vt 0.335449 0.312988
vt 0.335449 0.343262
vt 0.312988 0.312988
vt 0.312988 0.343262
vt 0.358887 0.343262
vt 0.358887 0.312988
vt 0.336426 0.343262
vt 0.336426 0.312988
vt 0.367676 0.312012
vt 0.367676 0.242676
vt 0.390137 0.312012
vt 0.390137 0.242676
vt 0.312988 0.312012
vt 0.312988 0.242676
vt 0.335449 0.312012
vt 0.335449 0.242676
vn 1.0000 0.0000 0.0048
vn -1.0000 -0.0000 -0.0048
vn 0.0000 1.0000 0.0000
vn 0.0000 -1.0000 -0.0000
vn -0.0048 0.0000 1.0000
vn 0.0048 -0.0000 -1.0000
usemtl 0
s 1
f 65/191/50 66/192/50 67/193/50
f 66/192/50 68/194/50 67/193/50
f 69/195/51 70/196/51 71/197/51
f 70/196/51 72/198/51 71/197/51
f 69/199/52 71/200/52 67/201/52
f 71/200/52 65/202/52 67/201/52
f 72/203/53 70/204/53 66/205/53
f 70/204/53 68/206/53 66/205/53
f 71/207/54 72/208/54 65/209/54
f 72/208/54 66/210/54 65/209/54
f 67/211/55 68/212/55 69/213/55
f 68/212/55 70/214/55 69/213/55
o Icon.005
v 4.518778 52.000000 -3.918457
v 4.518778 43.000000 -3.918456
v 4.519256 52.000000 -4.018456
v 4.519256 43.000000 -4.018455
v -4.480641 52.000000 -4.061469
v -4.480641 43.000000 -4.061467
v -4.481119 52.000000 -3.961470
v -4.481119 43.000000 -3.961468
vt 0.000488 0.187012
vt 0.000488 0.117676
vt -0.000488 0.187012
vt -0.000488 0.117676
vt 0.070801 0.187012
vt 0.070801 0.117676
vt 0.069824 0.187012
vt 0.069824 0.117676
vt 0.069824 0.187012
vt 0.069824 0.187988
vt 0.000488 0.187012
vt 0.000488 0.187988
vt 0.140137 0.187012
vt 0.140137 0.187988
vt 0.070801 0.187012
vt 0.070801 0.187988
vt 0.070801 0.187012
vt 0.070801 0.117676
vt 0.140137 0.187012
vt 0.140137 0.117676
vt 0.000488 0.117676
vt 0.069824 0.117676
vn 1.0000 0.0000 0.0048
vn -1.0000 0.0000 -0.0048
vn 0.0000 1.0000 -0.0001
vn 0.0000 1.0000 0.0001
vn 0.0000 -1.0000 0.0000
vn -0.0048 0.0000 1.0000
vn 0.0048 -0.0000 -1.0000
usemtl 0
s 1
f 73/215/56 74/216/56 75/217/56
f 74/216/56 76/218/56 75/217/56
f 77/219/57 78/220/57 79/221/57
f 78/220/57 80/222/57 79/221/57
f 77/223/58 79/224/58 75/225/59
f 79/224/58 73/226/59 75/225/59
f 80/227/60 78/228/60 74/229/60
f 78/228/60 76/230/60 74/229/60
f 79/231/61 80/232/61 73/233/61
f 80/232/61 74/234/61 73/233/61
f 75/225/62 76/235/62 77/223/62
f 76/235/62 78/236/62 77/223/62
o Icon.006
v 2.499971 51.500000 0.011940
v 2.499971 43.500000 0.011941
v 2.519088 51.500000 -3.988015
v 2.519088 43.500000 -3.988013
v -2.480855 51.500000 -4.011910
v -2.480855 43.500000 -4.011909
v -2.499971 51.500000 -0.011956
v -2.499971 43.500000 -0.011955
vt 0.000488 0.312012
vt 0.000488 0.250488
vt 0.030762 0.312012
vt 0.030762 0.250488
vt 0.070801 0.312012
vt 0.070801 0.250488
vt 0.101074 0.312012
vt 0.101074 0.250488
vt 0.069824 0.312988
vt 0.069824 0.343262
vt 0.031738 0.312988
vt 0.031738 0.343262
vt 0.108887 0.343262
vt 0.108887 0.312988
vt 0.070801 0.343262
vt 0.070801 0.312988
vt 0.102051 0.312012
vt 0.102051 0.250488
vt 0.140137 0.312012
vt 0.140137 0.250488
vt 0.031738 0.312012
vt 0.031738 0.250488
vt 0.069824 0.312012
vt 0.069824 0.250488
vn 1.0000 0.0000 0.0048
vn -1.0000 0.0000 -0.0048
vn 0.0000 1.0000 0.0000
vn 0.0000 -1.0000 -0.0000
vn -0.0048 0.0000 1.0000
vn 0.0048 -0.0000 -1.0000
usemtl 0
s 1
f 81/237/63 82/238/63 83/239/63
f 82/238/63 84/240/63 83/239/63
f 85/241/64 86/242/64 87/243/64
f 86/242/64 88/244/64 87/243/64
f 85/245/65 87/246/65 83/247/65
f 87/246/65 81/248/65 83/247/65
f 88/249/66 86/250/66 82/251/66
f 86/250/66 84/252/66 82/251/66
f 87/253/67 88/254/67 81/255/67
f 88/254/67 82/256/67 81/255/67
f 83/257/68 84/258/68 85/259/68
f 84/258/68 86/260/68 85/259/68
o Icon.007
v 1.253570 43.000000 -0.744024
v 1.253570 42.000000 -0.744024
v 1.265518 43.000000 -3.243996
v 1.265518 42.000000 -3.243996
v -1.234453 43.000000 -3.255944
v -1.234453 42.000000 -3.255944
v -1.246401 43.000000 -0.755972
v -1.246401 42.000000 -0.755972
vt 0.156738 0.226074
vt 0.156738 0.219238
vt 0.171387 0.226074
vt 0.171387 0.219238
vt 0.187988 0.226074
vt 0.187988 0.219238
vt 0.202637 0.226074
vt 0.202637 0.219238
vt 0.187012 0.227051
vt 0.187012 0.241699
vt 0.172363 0.227051
vt 0.172363 0.241699
vt 0.202637 0.241699
vt 0.202637 0.227051
vt 0.187988 0.241699
vt 0.187988 0.227051
vt 0.203613 0.226074
vt 0.203613 0.219238
vt 0.218262 0.226074
vt 0.218262 0.219238
vt 0.172363 0.226074
vt 0.172363 0.219238
vt 0.187012 0.226074
vt 0.187012 0.219238
vn 1.0000 0.0000 0.0048
vn -1.0000 0.0000 -0.0048
vn 0.0000 1.0000 0.0000
vn 0.0000 -1.0000 0.0000
vn -0.0048 0.0000 1.0000
vn 0.0048 -0.0000 -1.0000
usemtl 0
s 1
f 89/261/69 90/262/69 91/263/69
f 90/262/69 92/264/69 91/263/69
f 93/265/70 94/266/70 95/267/70
f 94/266/70 96/268/70 95/267/70
f 93/269/71 95/270/71 91/271/71
f 95/270/71 89/272/71 91/271/71
f 96/273/72 94/274/72 90/275/72
f 94/274/72 92/276/72 90/275/72
f 95/277/73 96/278/73 89/279/73
f 96/278/73 90/280/73 89/279/73
f 91/281/74 92/282/74 93/283/74
f 92/282/74 94/284/74 93/283/74
o Icon.008
v -3.999954 48.000000 -0.019124
v -3.999954 47.000000 -0.019124
v -3.980838 48.000000 -4.019079
v -3.980838 47.000000 -4.019079
v -4.980826 48.000000 -4.023858
v -4.980826 47.000000 -4.023858
v -4.999943 48.000000 -0.023904
v -4.999943 47.000000 -0.023904
vt 0.078613 0.210449
vt 0.078613 0.203613
vt 0.108887 0.210449
vt 0.108887 0.203613
vt 0.117676 0.210449
vt 0.117676 0.203613
vt 0.147949 0.210449
vt 0.147949 0.203613
vt 0.116699 0.211426
vt 0.116699 0.241699
vt 0.109863 0.211426
vt 0.109863 0.241699
vt 0.124512 0.241699
vt 0.124512 0.211426
vt 0.117676 0.241699
vt 0.117676 0.211426
vt 0.148926 0.210449
vt 0.148926 0.203613
vt 0.155762 0.210449
vt 0.155762 0.203613
vt 0.109863 0.210449
vt 0.109863 0.203613
vt 0.116699 0.210449
vt 0.116699 0.203613
vn 1.0000 0.0000 0.0048
vn -1.0000 0.0000 -0.0048
vn 0.0000 1.0000 0.0000
vn 0.0000 -1.0000 0.0000
vn -0.0048 0.0000 1.0000
vn 0.0048 0.0000 -1.0000
usemtl 0
s 1
f 97/285/75 98/286/75 99/287/75
f 98/286/75 100/288/75 99/287/75
f 101/289/76 102/290/76 103/291/76
f 102/290/76 104/292/76 103/291/76
f 101/293/77 103/294/77 99/295/77
f 103/294/77 97/296/77 99/295/77
f 104/297/78 102/298/78 98/299/78
f 102/298/78 100/300/78 98/299/78
f 103/301/79 104/302/79 97/303/79
f 104/302/79 98/304/79 97/303/79
f 99/305/80 100/306/80 101/307/80
f 100/306/80 102/308/80 101/307/80
o Icon.009
v 4.999943 48.000000 0.023888
v 4.999943 47.000000 0.023888
v 5.019060 48.000000 -3.976066
v 5.019060 47.000000 -3.976066
v 4.019071 48.000000 -3.980845
v 4.019071 47.000000 -3.980845
v 3.999954 48.000000 0.019109
v 3.999954 47.000000 0.019109
vt 0.000488 0.210449
vt 0.000488 0.203613
vt 0.030762 0.210449
vt 0.030762 0.203613
vt 0.039551 0.210449
vt 0.039551 0.203613
vt 0.069824 0.210449
vt 0.069824 0.203613
vt 0.038574 0.211426
vt 0.038574 0.241699
vt 0.031738 0.211426
vt 0.031738 0.241699
vt 0.046387 0.241699
vt 0.046387 0.211426
vt 0.039551 0.241699
vt 0.039551 0.211426
vt 0.070801 0.210449
vt 0.070801 0.203613
vt 0.077637 0.210449
vt 0.077637 0.203613
vt 0.031738 0.210449
vt 0.031738 0.203613
vt 0.038574 0.210449
vt 0.038574 0.203613
vn 1.0000 0.0000 0.0048
vn -1.0000 0.0000 -0.0048
vn 0.0000 1.0000 0.0000
vn 0.0000 -1.0000 0.0000
vn -0.0048 0.0000 1.0000
vn 0.0048 0.0000 -1.0000
usemtl 0
s 1
f 105/309/81 106/310/81 107/311/81
f 106/310/81 108/312/81 107/311/81
f 109/313/82 110/314/82 111/315/82
f 110/314/82 112/316/82 111/315/82
f 109/317/83 111/318/83 107/319/83
f 111/318/83 105/320/83 107/319/83
f 112/321/84 110/322/84 106/323/84
f 110/322/84 108/324/84 106/323/84
f 111/325/85 112/326/85 105/327/85
f 112/326/85 106/328/85 105/327/85
f 107/329/86 108/330/86 109/331/86
f 108/330/86 110/332/86 109/331/86
